<?xml version="1.0" encoding="UTF-8" standalone="no"?>
<svg
   xmlns:dc="http://purl.org/dc/elements/1.1/"
   xmlns:cc="http://creativecommons.org/ns#"
   xmlns:rdf="http://www.w3.org/1999/02/22-rdf-syntax-ns#"
   xmlns:svg="http://www.w3.org/2000/svg"
   xmlns="http://www.w3.org/2000/svg"
   xmlns:xlink="http://www.w3.org/1999/xlink"
   xmlns:sodipodi="http://sodipodi.sourceforge.net/DTD/sodipodi-0.dtd"
   xmlns:inkscape="http://www.inkscape.org/namespaces/inkscape"
   width="114.54"
   height="115.682"
   viewBox="0 0 114.54 115.682"
   version="1.1"
   id="svg46"
   sodipodi:docname="cdc-text.svg"
   inkscape:version="0.92.4 (5da689c313, 2019-01-14)">
  <metadata
     id="metadata50">
    <rdf:RDF>
      <cc:Work
         rdf:about="">
        <dc:format>image/svg+xml</dc:format>
        <dc:type
           rdf:resource="http://purl.org/dc/dcmitype/StillImage" />
        <dc:title></dc:title>
      </cc:Work>
    </rdf:RDF>
  </metadata>
  <sodipodi:namedview
     pagecolor="#ffffff"
     bordercolor="#666666"
     borderopacity="1"
     objecttolerance="10"
     gridtolerance="10"
     guidetolerance="10"
     inkscape:pageopacity="0"
     inkscape:pageshadow="2"
     inkscape:window-width="1920"
     inkscape:window-height="1001"
     id="namedview48"
     showgrid="false"
     inkscape:pagecheckerboard="true"
     inkscape:zoom="23.368421"
     inkscape:cx="40.926512"
     inkscape:cy="11.631026"
     inkscape:window-x="-9"
     inkscape:window-y="-9"
     inkscape:window-maximized="1"
     inkscape:current-layer="svg46"
     fit-margin-top="0"
     fit-margin-left="0"
     fit-margin-right="0"
     fit-margin-bottom="0" />
  <defs
     id="defs4">
    <path
       id="a"
       d="M 0,0.085 H 18.915 V 23.917 H 0 Z"
       inkscape:connector-curvature="0" />
    <path
       id="c"
       d="M 0,122.751 H 303.976 V 0 H 0 Z"
       inkscape:connector-curvature="0" />
    <mask
       fill="#fff"
       id="d">
      <use
         id="use15"
         xlink:href="#c"
         x="0"
         y="0"
         width="100%"
         height="100%" />
    </mask>
  </defs>
  <path
     style="fill:#e20714;fill-rule:evenodd"
     inkscape:connector-curvature="0"
     id="path18"
     mask="url(#d)"
     d="m 189.437,115.682 h 114.54 V 0 h -114.54 z"
     sodipodi:nodetypes="ccccc"
     transform="translate(-189.437)" />
  <path
     style="opacity:1;fill:#fefefe;fill-rule:evenodd"
     inkscape:connector-curvature="0"
     id="path20"
     mask="url(#d)"
     d="m 204.034,62.577 c -2.566,0 -3.71,2.132 -3.71,4.78 0,2.323 1.01,4.663 3.71,4.663 1.85,0 2.868,-1.24 3.099,-3.121 h 2.906 c -0.328,3.731 -2.857,5.677 -6.005,5.677 -4.212,0 -6.713,-3.166 -6.713,-7.22 0,-4.272 2.625,-7.354 6.713,-7.354 3.138,0 5.549,1.924 5.89,5.014 h -2.906 c -0.205,-1.397 -1.526,-2.439 -2.984,-2.439 m 13.541,7.785 c 0,1.744 -0.956,2.321 -2.2,2.321 -0.851,0 -1.664,-0.247 -1.664,-1.287 0,-0.707 0.336,-1.256 1.607,-1.484 0.217,-0.038 0.433,-0.07 0.65,-0.096 0.52,-0.053 1.33,-0.208 1.607,-0.488 z m 2.716,1.658 v -5.248 c 0,-2.617 -2.804,-2.868 -4.342,-2.868 -2.1,0 -4.494,0.73 -4.647,3.375 h 2.716 c 0.107,-1.158 0.795,-1.521 1.798,-1.521 0.946,0 1.759,0.199 1.759,1.365 0.029,0.663 -0.47,1.018 -2.027,1.17 -0.396,0.04 -0.798,0.092 -1.205,0.157 -1.594,0.254 -3.347,0.732 -3.347,3.063 0,1.958 1.332,3.005 3.366,3.005 1.046,0 2.439,-0.254 3.328,-1.23 0.01,0.238 0.1,0.736 0.19,0.976 h 2.755 c -0.29,-0.473 -0.344,-1.511 -0.344,-2.244 z m 1.929,2.244 h 2.716 V 64.177 h -2.716 z m 0,-11.648 h 2.716 v -2.283 h -2.716 z m 8.73,10.067 c 0.719,0 1.779,-0.297 1.779,-1.287 a 0.816,0.816 0 0 0 -0.257,-0.604 c -0.962,-0.944 -4.08,-0.761 -5.364,-2.086 -0.365,-0.378 -0.595,-0.879 -0.595,-1.563 0,-2.093 1.467,-3.24 4.303,-3.24 1.854,0 4.145,0.571 4.361,3.22 h -2.582 c -0.04,-1.061 -0.873,-1.366 -1.855,-1.366 -0.68,0 -1.511,0.144 -1.511,0.937 0,0.662 0.684,0.982 1.95,1.249 0.37,0.078 0.747,0.162 1.13,0.253 1.559,0.36 3.136,0.947 3.136,2.829 0,2.066 -1.451,3.493 -4.514,3.493 -2.476,0 -4.552,-0.974 -4.647,-3.532 h 2.582 c 0,1.121 0.935,1.697 2.085,1.697 m -7.237,18.92 c 0.718,0 1.778,-0.298 1.778,-1.288 a 0.817,0.817 0 0 0 -0.257,-0.603 c -0.961,-0.945 -4.08,-0.761 -5.363,-2.087 -0.366,-0.377 -0.595,-0.878 -0.595,-1.563 0,-2.092 1.466,-3.239 4.302,-3.239 1.855,0 4.145,0.57 4.362,3.22 h -2.582 c -0.041,-1.062 -0.874,-1.366 -1.856,-1.366 -0.68,0 -1.51,0.144 -1.51,0.937 0,0.662 0.683,0.981 1.95,1.249 0.37,0.078 0.746,0.162 1.13,0.253 1.558,0.36 3.135,0.947 3.135,2.829 0,2.066 -1.45,3.492 -4.513,3.492 -2.476,0 -4.553,-0.973 -4.648,-3.53 h 2.582 c 0,1.12 0.936,1.696 2.085,1.696 m 67.148,0 c 0.718,0 1.778,-0.298 1.778,-1.288 a 0.817,0.817 0 0 0 -0.257,-0.603 c -0.962,-0.945 -4.08,-0.761 -5.364,-2.087 -0.365,-0.377 -0.595,-0.878 -0.595,-1.563 0,-2.092 1.467,-3.239 4.303,-3.239 1.854,0 4.145,0.57 4.361,3.22 h -2.582 c -0.04,-1.062 -0.873,-1.366 -1.855,-1.366 -0.68,0 -1.511,0.144 -1.511,0.937 0,0.662 0.684,0.981 1.95,1.249 0.371,0.078 0.747,0.162 1.13,0.253 1.559,0.36 3.136,0.947 3.136,2.829 0,2.066 -1.451,3.492 -4.513,3.492 -2.477,0 -4.553,-0.973 -4.648,-3.53 h 2.582 c 0,1.12 0.935,1.696 2.085,1.696 m -49.774,-18.92 c 0.718,0 1.778,-0.297 1.778,-1.287 a 0.816,0.816 0 0 0 -0.257,-0.604 c -0.962,-0.944 -4.079,-0.761 -5.363,-2.086 -0.366,-0.378 -0.595,-0.879 -0.595,-1.563 0,-2.093 1.466,-3.24 4.303,-3.24 1.854,0 4.145,0.571 4.361,3.22 h -2.582 c -0.041,-1.061 -0.874,-1.366 -1.855,-1.366 -0.68,0 -1.511,0.144 -1.511,0.937 0,0.662 0.684,0.982 1.95,1.249 0.371,0.078 0.747,0.162 1.13,0.253 1.558,0.36 3.135,0.947 3.135,2.829 0,2.066 -1.45,3.493 -4.513,3.493 -2.476,0 -4.552,-0.974 -4.647,-3.532 h 2.582 c 0,1.121 0.935,1.697 2.084,1.697 m 10.452,-6.692 c -1.426,0 -2.18,0.956 -2.256,2.147 h 4.418 c -0.26,-1.426 -0.85,-2.147 -2.161,-2.147 m 0.172,6.459 c 1.092,0 1.963,-0.681 2.141,-1.308 h 2.391 c -0.847,2.678 -2.696,3.376 -4.628,3.376 -3.283,0 -5.05,-2.328 -5.05,-5.288 0,-3.065 2.092,-5.326 5.05,-5.326 3.568,0 4.985,3.155 4.8,5.99 h -7.133 c 0.079,1.847 0.951,2.556 2.429,2.556 m -38.406,12.461 c -1.427,0 -2.18,0.956 -2.257,2.146 h 4.418 c -0.26,-1.425 -0.85,-2.146 -2.161,-2.146 m 0.172,6.459 c 1.092,0 1.963,-0.681 2.142,-1.308 h 2.39 c -0.846,2.677 -2.696,3.375 -4.628,3.375 -3.283,0 -5.049,-2.327 -5.049,-5.287 0,-3.065 2.091,-5.327 5.05,-5.327 3.568,0 4.984,3.156 4.8,5.99 h -7.134 c 0.08,1.848 0.952,2.557 2.429,2.557 m -11.166,-6.459 c -1.678,0 -2.39,1.415 -2.39,3.22 0,1.526 0.665,3.239 2.39,3.239 1.79,0 2.333,-1.603 2.333,-3.259 0,-1.631 -0.573,-3.2 -2.333,-3.2 z m 2.333,6.985 c -0.64,1.097 -1.708,1.541 -3.002,1.541 -3.026,0 -4.438,-2.596 -4.438,-5.385 0,-2.939 1.655,-5.229 4.38,-5.229 1.155,0 2.307,0.503 2.926,1.503 h 0.039 v -5.073 h 2.715 v 13.931 h -2.582 v -1.288 z m 34.52,-1.288 c 2.047,0 3.404,-1.425 3.404,-4.175 0,-2.558 -0.8,-4.605 -3.94,-4.605 h -2.14 v 8.78 z m 0.21,-11.355 c 3.455,0 6.197,2.19 6.197,6.888 0,4.168 -2.152,7.043 -6.196,7.043 h -5.89 v -13.93 h 5.89 z m 12.174,5.658 c -1.427,0 -2.18,0.956 -2.257,2.146 h 4.418 c -0.26,-1.425 -0.85,-2.146 -2.162,-2.146 m 0.173,6.459 c 1.092,0 1.963,-0.681 2.142,-1.308 h 2.39 c -0.847,2.677 -2.696,3.375 -4.628,3.375 -3.283,0 -5.05,-2.327 -5.05,-5.287 0,-3.065 2.092,-5.327 5.05,-5.327 3.569,0 4.985,3.156 4.8,5.99 h -7.133 c 0.079,1.848 0.951,2.557 2.429,2.557 m 0.382,-13.503 -2.028,3.454 h 1.894 l 3.118,-3.454 z m 12.773,10.303 c 0,-1.846 -0.787,-3.259 -2.371,-3.259 -1.52,0 -2.353,1.225 -2.353,3.258 0,1.757 0.689,3.2 2.371,3.2 1.672,0 2.353,-1.393 2.353,-3.2 z m -4.762,-5.074 v 1.288 h 0.038 c 0.677,-1.117 1.755,-1.56 2.945,-1.56 3.22,0 4.495,2.748 4.495,5.423 0,2.747 -1.466,5.19 -4.341,5.19 -1.28,0 -2.329,-0.553 -2.965,-1.502 h -0.039 v 4.78 h -2.715 V 83.096 Z m 13.638,8.274 c 1.83,0 2.41,-1.553 2.41,-3.22 0,-1.536 -0.497,-3.24 -2.41,-3.24 -1.692,0 -2.39,1.408 -2.39,3.24 0,1.778 0.657,3.22 2.39,3.22 z m 1.263,-12.292 2.103,2.77 h -2.236 l -1.187,-1.58 -1.224,1.58 h -2.046 l 2.103,-2.77 z m -1.263,3.745 c 3.155,0 5.126,2.142 5.126,5.327 0,3.045 -1.842,5.287 -5.126,5.287 -2.904,0 -5.106,-1.877 -5.106,-5.287 0,-3.256 2.05,-5.327 5.106,-5.327 z m 11.811,0.273 v 1.854 h -1.99 v 4.995 c 0,0.93 0.238,1.17 1.149,1.17 0.29,0 0.594,-0.026 0.841,-0.078 v 2.147 c -0.477,0.081 -1.148,0.097 -1.587,0.097 -1.81,0 -3.118,-0.428 -3.118,-2.38 v -5.95 h -1.644 v -1.855 h 1.644 v -3.024 h 2.716 v 3.024 h 1.99 z m -87.979,20.442 v -0.02 c 0,-2.064 1.548,-3.812 3.725,-3.812 1.259,0 2.033,0.358 2.776,1 l -0.805,0.98 c -0.557,-0.485 -1.104,-0.79 -2.022,-0.79 -1.331,0 -2.343,1.19 -2.343,2.6 v 0.022 c 0,1.516 0.98,2.633 2.456,2.633 0.68,0 1.3,-0.222 1.744,-0.559 v -1.38 h -1.847 v -1.126 h 3.075 v 3.095 a 4.55,4.55 0 0 1 -3.013,1.148 c -2.26,0 -3.746,-1.643 -3.746,-3.79 m 13.365,-0.053 c 0.908,0 1.485,-0.485 1.485,-1.232 v -0.021 c 0,-0.79 -0.557,-1.221 -1.496,-1.221 h -1.847 v 2.474 h 1.857 z m -3.127,-3.654 h 3.22 c 0.907,0 1.62,0.274 2.083,0.737 0.382,0.4 0.6,0.948 0.6,1.59 v 0.021 c 0,1.21 -0.713,1.938 -1.724,2.233 l 1.95,2.79 h -1.496 l -1.775,-2.57 h -1.589 v 2.57 h -1.269 v -7.37 z m 14.673,3.706 v -0.02 c 0,-1.433 -1.021,-2.622 -2.455,-2.622 -1.435,0 -2.436,1.168 -2.436,2.6 v 0.022 c 0,1.432 1.022,2.622 2.457,2.622 1.434,0 2.434,-1.17 2.434,-2.602 m -6.222,0 v -0.02 c 0,-2.074 1.569,-3.812 3.788,-3.812 2.218,0 3.765,1.716 3.765,3.79 v 0.022 c 0,2.074 -1.568,3.811 -3.786,3.811 -2.219,0 -3.767,-1.716 -3.767,-3.79 m 10.288,0.536 v -4.243 h 1.27 v 4.19 c 0,1.37 0.69,2.107 1.826,2.107 1.125,0 1.816,-0.695 1.816,-2.054 v -4.243 h 1.27 v 4.18 c 0,2.201 -1.218,3.307 -3.107,3.307 -1.878,0 -3.075,-1.106 -3.075,-3.244 m 12.012,-0.41 c 0.96,0 1.557,-0.548 1.557,-1.316 v -0.021 c 0,-0.864 -0.608,-1.317 -1.557,-1.317 h -1.476 v 2.654 z m -2.745,-3.833 h 2.848 c 1.682,0 2.745,0.98 2.745,2.464 v 0.02 c 0,1.655 -1.3,2.517 -2.89,2.517 h -1.434 v 2.37 h -1.269 v -7.37 z m 8.069,0 h 5.356 v 1.158 h -4.086 v 1.916 h 3.621 v 1.159 h -3.621 v 1.98 h 4.137 v 1.158 h -5.407 z m 29.599,-61.238 c 0.37,0.486 0.76,0.936 1.168,1.35 0.454,-0.202 1.075,-0.286 1.902,-0.138 -1.053,-0.788 -2.014,-1.8 -2.851,-3.025 a 15.714,15.714 0 0 1 -1.21,-2.12 c -0.658,-1.469 -1.407,-2.582 -2.197,-3.333 -1.232,-1.17 -2.788,-1.682 -4.462,-0.382 0.63,0.604 2.084,1.29 3.186,0.133 0.755,0.446 1.486,1.336 1.916,2.648 0.139,0.411 0.292,0.817 0.456,1.212 -1.04,-0.636 -2.173,-0.531 -2.865,0.372 0.47,0.277 1.454,0.484 1.944,-0.377 0.124,0.026 0.38,0.143 0.44,0.175 0.896,0.483 1.15,1.34 1.666,2.155 -0.378,0.054 -0.741,0.224 -1.054,0.536 0.795,-0.237 1.389,0.034 1.96,0.794 M 270.983,18.71 c 0.257,0.876 0.048,1.61 -0.083,1.947 -0.273,0.692 -0.949,1.415 -1.592,1.859 -1.024,-0.998 -2.32,-0.22 -3.01,0.443 1.212,0.901 2.92,0.466 4.156,-0.71 -0.144,0.61 -0.263,1.23 -0.352,1.862 a 1.588,1.588 0 0 0 -1.226,-0.152 c 0.691,0.161 1.135,0.653 1.088,1.412 -0.006,0.091 -0.038,0.528 -0.043,0.636 a 3.839,3.839 0 0 0 -1.606,-0.977 c -0.676,-0.24 -1.584,-0.19 -2.371,0.208 0.531,1.03 2.132,1.146 3.08,0.525 0.403,0.342 0.873,0.93 0.873,1.817 0,1.033 -0.457,1.76 -1.593,1.99 0.7,0.177 1.267,0.04 1.694,-0.312 0.045,0.455 0.106,0.905 0.18,1.35 0.465,0.363 0.918,0.85 1.35,1.456 a 19.936,19.936 0 0 1 -0.774,-5.547 c 0,-2.122 0.356,-3.792 0.634,-5.041 0.213,-0.96 0.26,-1.788 0.147,-2.48 -0.27,-1.67 -1.384,-2.375 -2.826,-2.544 0.093,0.965 0.72,2.469 2.274,2.258 m 0.874,-0.406 c 0.11,0.336 0.174,0.714 0.19,1.132 0.181,-0.465 0.38,-0.919 0.598,-1.357 1.734,-3.312 1.009,-5.074 -1.025,-6.097 -0.382,0.925 -0.483,2.746 1.297,3.365 -0.067,0.646 -0.3,1.492 -0.843,2.524 -0.075,0.143 -0.146,0.288 -0.217,0.433"
     transform="translate(-189.437)" />
  <path
     style="fill:#fefefe;fill-rule:evenodd"
     inkscape:connector-curvature="0"
     id="path22"
     mask="url(#d)"
     d="m 271.49,16.371 c 0.093,-0.703 -0.356,-1.613 -1.354,-1.651 -0.227,0.889 0.516,1.668 1.353,1.651 m 10.681,30.734 -1.822,-1.074 c 0,0 0.214,0.474 0.214,1.074 0,0.6 -0.214,1.075 -0.214,1.075 l 1.823,-1.075 z m 0.148,0.149 -1.064,1.841 c 0,0 0.47,-0.216 1.064,-0.216 0.594,0 1.065,0.216 1.065,0.216 l -1.065,-1.84 z m 0.148,-0.149 1.823,1.075 c 0,0 -0.215,-0.475 -0.215,-1.075 0,-0.6 0.215,-1.074 0.215,-1.074 z m -1.212,-1.99 1.065,1.841 1.063,-1.84 c 0,0 -0.47,0.215 -1.063,0.215 -0.594,0 -1.065,-0.216 -1.065,-0.216 m -7.3,-5.109 c -0.332,-0.245 -0.657,-0.415 -0.983,-0.48 -0.065,-0.832 -0.973,-1.204 -2.468,-1.013 0.163,0.577 0.677,1.008 1.345,1.234 -0.511,0.316 -1.047,0.947 -1.636,2 1.41,0.372 2.927,-0.383 3.742,-1.74 m -2.906,-3.494 c -1.108,-0.238 -2.238,0.164 -2.72,1.05 1.23,0.49 2.608,-0.016 2.72,-1.05 m -1.705,-2.937 c 0.263,-0.775 -0.364,-1.233 -1.615,-1.229 0.034,0.237 0.15,0.452 0.324,0.634 -0.444,0.092 -0.977,0.439 -1.655,1.133 0.913,0.515 2.116,0.262 2.946,-0.538 m -0.188,-14.011 a 1.528,1.528 0 0 0 -0.416,-0.537 c 0.208,-0.49 -0.196,-0.947 -1.097,-1.241 -0.076,0.372 0.09,0.756 0.401,1.065 -0.38,0.041 -0.867,0.254 -1.509,0.695 0.687,0.591 1.764,0.57 2.62,0.018 m 7.839,25.382 c -0.616,-0.619 -1.634,-0.43 -2.044,0.229 0.53,0.422 1.507,0.526 2.044,-0.229 m -7.285,-24.104 c -0.555,-0.595 -1.506,-0.453 -1.907,0.145 0.48,0.41 1.385,0.539 1.907,-0.145 m -2.497,7.999 c 0.546,0.278 1.421,0.201 1.747,-0.552 -0.659,-0.436 -1.514,-0.095 -1.747,0.552"
     transform="translate(-189.437)" />
  <path
     style="fill:#fefefe;fill-rule:evenodd"
     inkscape:connector-curvature="0"
     id="path24"
     mask="url(#d)"
     d="m 268.62,39.966 c 0.507,0.444 1.47,0.594 2.037,-0.128 -0.583,-0.643 -1.6,-0.504 -2.037,0.128 m 5.74,2.543 c -0.756,-0.441 -1.682,-0.01 -1.9,0.722 0.621,0.274 1.586,0.133 1.9,-0.722 m -5.633,-6.325 c -0.49,-0.528 -1.333,-0.402 -1.691,0.128 0.424,0.364 1.225,0.478 1.69,-0.128 m -0.642,-8.868 c -0.712,-0.896 -2.057,-0.807 -2.68,-0.016 0.628,0.629 1.88,0.913 2.68,0.016 m 15.726,16.027 c 0.106,-0.19 0.045,-0.395 -0.117,-0.531 -0.128,-0.108 -0.396,-0.375 -0.992,-0.875 -0.1,-0.084 -0.237,-0.173 -0.382,-0.173 -0.147,0 -0.283,0.089 -0.384,0.173 -0.595,0.5 -0.864,0.767 -0.992,0.875 -0.16,0.136 -0.223,0.34 -0.118,0.531 0.105,0.19 0.325,0.249 0.495,0.134 -0.196,0.308 -0.059,0.578 0.098,0.676 0.178,0.111 0.4,0.045 0.506,-0.146 -0.053,0.347 0.181,0.554 0.395,0.554 0.212,0 0.446,-0.207 0.393,-0.554 0.107,0.19 0.329,0.257 0.506,0.146 0.157,-0.099 0.295,-0.368 0.099,-0.676 0.17,0.115 0.39,0.056 0.494,-0.134"
     transform="translate(-189.437)" />
  <path
     style="fill:#fefefe;fill-rule:evenodd"
     inkscape:connector-curvature="0"
     id="path26"
     mask="url(#d)"
     d="m 278.513,40.959 c -1.036,-0.466 -2.837,-1.08 -3.984,-0.4 -0.433,0.257 -0.8,0.703 -0.896,1.207 0.773,-0.864 2.724,-1.15 3.276,0.438 0.154,0.443 0.164,1.134 -0.308,1.395 0.18,-1.137 -0.55,-1.833 -1.526,-1.86 -0.125,0.524 0.005,1.097 0.329,1.478 a 1.745,1.745 0 0 0 -0.856,0.135 c 0,0 0.397,0.644 1.166,0.705 a 1.695,1.695 0 0 0 1.425,-0.562 c 0.083,0.715 0.216,1.352 0.985,1.578 -0.768,0.37 -1.41,0.987 -1.58,1.794 3.195,-0.163 2.89,-1.379 2.594,-2.127 -1.882,0.493 -1.518,-1.341 -1.509,-2.582 0.163,0.084 0.702,0.333 1.23,0.535 a 2.05,2.05 0 0 1 -0.558,0.803 c 0.945,-0.078 1.337,-0.358 2.97,-1.782 a 9.405,9.405 0 0 1 -2.758,-0.755 m 15.814,-9.631 c -0.79,0.75 -1.538,1.864 -2.196,3.333 a 15.742,15.742 0 0 1 -1.21,2.12 c -0.837,1.224 -1.799,2.237 -2.851,3.025 0.827,-0.148 1.448,-0.064 1.901,0.138 0.408,-0.414 0.799,-0.864 1.169,-1.35 0.572,-0.76 1.165,-1.03 1.96,-0.794 a 1.844,1.844 0 0 0 -1.053,-0.536 c 0.515,-0.814 0.77,-1.672 1.666,-2.155 0.06,-0.032 0.316,-0.149 0.44,-0.175 0.49,0.861 1.472,0.653 1.943,0.377 -0.691,-0.903 -1.824,-1.008 -2.865,-0.372 0.165,-0.395 0.318,-0.8 0.457,-1.212 0.43,-1.312 1.16,-2.201 1.915,-2.648 1.103,1.156 2.557,0.47 3.186,-0.133 -1.673,-1.3 -3.23,-0.79 -4.462,0.382 m -1.225,-12.333 c -0.112,0.693 -0.066,1.52 0.147,2.48 0.277,1.25 0.634,2.92 0.634,5.042 0,1.923 -0.267,3.8 -0.775,5.547 0.433,-0.607 0.886,-1.093 1.35,-1.456 0.074,-0.445 0.136,-0.895 0.18,-1.35 0.427,0.352 0.994,0.49 1.694,0.313 -1.135,-0.23 -1.592,-0.958 -1.592,-1.99 0,-0.888 0.47,-1.476 0.873,-1.818 0.947,0.621 2.548,0.506 3.08,-0.525 -0.787,-0.397 -1.695,-0.447 -2.37,-0.208 -0.705,0.211 -1.26,0.62 -1.608,0.977 -0.004,-0.108 -0.036,-0.545 -0.042,-0.636 -0.048,-0.76 0.397,-1.25 1.088,-1.413 a 1.59,1.59 0 0 0 -1.227,0.153 20.543,20.543 0 0 0 -0.351,-1.862 c 1.236,1.176 2.944,1.611 4.155,0.71 -0.689,-0.663 -1.986,-1.44 -3.01,-0.443 -0.643,-0.444 -1.318,-1.167 -1.592,-1.859 a 3.035,3.035 0 0 1 -0.082,-1.947 c 1.553,0.21 2.181,-1.293 2.273,-2.258 -1.441,0.17 -2.556,0.874 -2.825,2.543 m -1.11,-0.916 c 0.217,0.438 0.416,0.892 0.597,1.357 0.016,-0.418 0.08,-0.795 0.19,-1.132 a 16.12,16.12 0 0 0 -0.217,-0.433 c -0.543,-1.032 -0.775,-1.878 -0.843,-2.524 1.78,-0.619 1.68,-2.44 1.297,-3.365 -2.033,1.023 -2.758,2.785 -1.024,6.097"
     transform="translate(-189.437)" />
  <path
     style="fill:#fefefe;fill-rule:evenodd"
     inkscape:connector-curvature="0"
     id="path28"
     mask="url(#d)"
     d="m 293.148,16.371 c 0.836,0.017 1.58,-0.762 1.352,-1.651 -0.997,0.038 -1.447,0.948 -1.352,1.651 m 0.985,22.142 c -1.495,-0.19 -2.402,0.18 -2.467,1.012 -0.326,0.066 -0.651,0.236 -0.984,0.482 0.815,1.356 2.333,2.112 3.742,1.74 -0.589,-1.053 -1.124,-1.684 -1.636,-2 0.668,-0.227 1.183,-0.658 1.345,-1.234 m -0.544,-2 c 0.112,1.034 1.489,1.54 2.719,1.05 -0.482,-0.886 -1.611,-1.288 -2.72,-1.05 m 2.996,-3.532 a 1.16,1.16 0 0 0 0.325,-0.633 c -1.251,-0.005 -1.878,0.453 -1.616,1.228 0.83,0.8 2.035,1.053 2.947,0.537 -0.678,-0.693 -1.211,-1.04 -1.656,-1.132 m 0.41,-15.194 c -0.9,0.294 -1.304,0.75 -1.097,1.241 -0.164,0.125 -0.3,0.308 -0.415,0.537 0.856,0.552 1.933,0.574 2.62,-0.018 -0.641,-0.44 -1.127,-0.654 -1.509,-0.695 0.312,-0.309 0.478,-0.693 0.401,-1.065 m -7.306,27.389 c -0.41,-0.659 -1.427,-0.848 -2.044,-0.229 0.537,0.755 1.514,0.651 2.044,0.229 m 5.242,-24.333 c 0.52,0.684 1.426,0.555 1.905,0.145 -0.4,-0.598 -1.351,-0.74 -1.906,-0.145 m 2.496,7.999 c -0.233,-0.647 -1.088,-0.988 -1.746,-0.552 0.325,0.753 1.2,0.83 1.746,0.552"
     transform="translate(-189.437)" />
  <path
     style="fill:#fefefe;fill-rule:evenodd"
     inkscape:connector-curvature="0"
     id="path30"
     mask="url(#d)"
     d="m 296.016,39.966 c -0.436,-0.632 -1.453,-0.77 -2.037,-0.128 0.567,0.722 1.53,0.572 2.037,0.128 m -5.74,2.543 c 0.314,0.855 1.28,0.996 1.9,0.722 -0.218,-0.732 -1.144,-1.163 -1.9,-0.722 m 7.324,-6.197 c -0.357,-0.53 -1.201,-0.656 -1.69,-0.128 0.466,0.606 1.267,0.492 1.69,0.128 m -1.048,-8.996 c 0.801,0.897 2.052,0.613 2.68,-0.016 -0.623,-0.79 -1.968,-0.88 -2.68,0.016"
     transform="translate(-189.437)" />
  <path
     style="fill:#fefefe;fill-rule:evenodd"
     inkscape:connector-curvature="0"
     id="path32"
     mask="url(#d)"
     d="m 291.003,41.766 c -0.096,-0.504 -0.463,-0.95 -0.895,-1.206 -1.147,-0.681 -2.948,-0.067 -3.984,0.399 -0.88,0.39 -1.805,0.647 -2.759,0.755 1.634,1.424 2.026,1.704 2.97,1.782 a 2.055,2.055 0 0 1 -0.557,-0.803 c 0.527,-0.202 1.066,-0.45 1.23,-0.535 0.009,1.24 0.373,3.075 -1.51,2.582 -0.296,0.748 -0.6,1.964 2.595,2.127 -0.17,-0.807 -0.812,-1.423 -1.58,-1.794 0.769,-0.226 0.901,-0.863 0.985,-1.578 0.353,0.397 0.862,0.607 1.424,0.562 0.77,-0.06 1.167,-0.706 1.167,-0.706 a 1.748,1.748 0 0 0 -0.856,-0.134 c 0.324,-0.38 0.453,-0.954 0.329,-1.477 -0.976,0.026 -1.707,0.723 -1.526,1.859 -0.472,-0.261 -0.462,-0.952 -0.308,-1.395 0.551,-1.589 2.503,-1.302 3.275,-0.438 m -8.685,-2.077 c -5.163,0 -9.367,-5.909 -9.367,-13.166 0,-7.268 4.204,-13.183 9.367,-13.183 5.163,0 9.368,5.915 9.368,13.183 0,7.257 -4.205,13.166 -9.368,13.166 m 10.356,-13.166 c 0,-7.806 -4.637,-14.145 -10.356,-14.145 -5.718,0 -10.356,6.339 -10.356,14.145 0,7.8 4.638,14.124 10.356,14.124 5.719,0 10.356,-6.324 10.356,-14.124"
     transform="translate(-189.437)" />
  <path
     style="fill:#fefefe;fill-rule:evenodd"
     inkscape:connector-curvature="0"
     id="path34"
     mask="url(#d)"
     d="m 282.318,14.248 c -0.873,0 -1.729,0.2 -2.544,0.582 h 5.089 a 5.982,5.982 0 0 0 -2.545,-0.582 m 3.898,1.409 h -7.796 a 8.567,8.567 0 0 0 -0.678,0.582 h 9.152 a 8.4,8.4 0 0 0 -0.678,-0.582 m 1.446,1.409 h -10.687 c -0.154,0.185 -0.305,0.379 -0.451,0.582 h 11.59 a 11.007,11.007 0 0 0 -0.452,-0.582 m -13.769,9.862 c 0.004,0.195 0.011,0.389 0.022,0.582 h 16.806 c 0.011,-0.193 0.018,-0.387 0.023,-0.582 z m 4.522,10.444 h 7.806 c 0.231,-0.178 0.459,-0.372 0.68,-0.582 h -9.164 c 0.22,0.21 0.446,0.404 0.678,0.582 m 3.903,1.409 c 0.875,0 1.733,-0.201 2.55,-0.582 h -5.096 c 0.816,0.38 1.673,0.582 2.546,0.582 m -4.791,-20.306 h -1.55 c -0.114,0.19 -0.225,0.383 -0.331,0.582 h 1.465 c 0.121,-0.206 0.26,-0.401 0.416,-0.582 m 9.999,0.582 h 1.465 a 12.64,12.64 0 0 0 -0.332,-0.582 h -1.55 c 0.156,0.18 0.295,0.376 0.417,0.582 m -10.8,0.827 h -1.484 c -0.086,0.19 -0.168,0.385 -0.246,0.581 h 1.572 c 0.038,-0.188 0.089,-0.383 0.158,-0.581 m 11.343,0.581 h 1.571 a 13.66,13.66 0 0 0 -0.245,-0.581 h -1.485 c 0.07,0.198 0.121,0.393 0.159,0.581 m -11.511,1.112 a 2.616,2.616 0 0 1 -0.045,-0.285 h -1.817 c -0.062,0.192 -0.121,0.386 -0.177,0.582 h 1.078 c 0.283,-0.178 0.61,-0.285 0.96,-0.297 m 11.522,0 c 0.35,0.012 0.678,0.12 0.961,0.297 h 1.078 c -0.056,-0.196 -0.115,-0.39 -0.178,-0.582 h -1.816 c -0.01,0.094 -0.025,0.189 -0.045,0.285 m -13.228,1.124 h -0.543 a 18.39,18.39 0 0 0 -0.121,0.582 h 0.474 c 0.036,-0.206 0.1,-0.401 0.19,-0.582 m 15.124,0.582 h 0.475 c -0.037,-0.195 -0.078,-0.39 -0.121,-0.582 h -0.543 c 0.09,0.18 0.154,0.376 0.19,0.582 m -15.151,1.25 a 2.33,2.33 0 0 1 -0.143,-0.423 h -0.632 c -0.027,0.193 -0.05,0.387 -0.07,0.582 h 0.945 a 0.687,0.687 0 0 1 -0.1,-0.159 m 14.986,0 a 0.677,0.677 0 0 1 -0.1,0.16 h 0.946 c -0.02,-0.196 -0.044,-0.39 -0.07,-0.583 h -0.632 c -0.033,0.142 -0.08,0.283 -0.144,0.423 m -4.363,-6.058 h -6.26 c 0.156,0.18 0.295,0.376 0.417,0.582 h 5.427 c 0.121,-0.206 0.26,-0.401 0.416,-0.582 m -0.801,1.409 h -4.658 c 0.07,0.198 0.121,0.393 0.158,0.581 h 4.342 c 0.038,-0.188 0.089,-0.383 0.158,-0.581 m -0.168,1.693 a 2.776,2.776 0 0 1 -0.045,-0.285 h -4.23 c -0.01,0.094 -0.025,0.189 -0.046,0.285 0.35,0.012 0.678,0.12 0.961,0.297 h 2.399 c 0.283,-0.178 0.61,-0.285 0.96,-0.297 m -1.896,1.706 c 0.036,-0.206 0.1,-0.401 0.19,-0.582 h -0.907 c 0.09,0.18 0.154,0.376 0.19,0.582 z m 0.264,1.409 c -0.09,-0.109 -0.183,-0.323 -0.243,-0.582 h -0.57 c -0.059,0.26 -0.152,0.473 -0.243,0.582 z m -1.355,3.645 h -7.513 c 0.02,0.195 0.044,0.389 0.07,0.582 h 7.026 a 4,4 0 0 1 0.417,-0.582 m 2.071,0.582 h 7.026 c 0.027,-0.193 0.05,-0.387 0.07,-0.582 h -7.513 c 0.156,0.18 0.296,0.376 0.417,0.582 m -2.874,0.827 h -6.503 c 0.037,0.195 0.077,0.39 0.12,0.582 h 6.224 a 4.3,4.3 0 0 1 0.16,-0.582 m 3.418,0.582 h 6.224 c 0.044,-0.193 0.084,-0.387 0.121,-0.582 h -6.504 a 4.3,4.3 0 0 1 0.16,0.582 m -3.59,1.116 a 2.643,2.643 0 0 1 -0.045,-0.29 h -5.957 c 0.056,0.197 0.115,0.39 0.178,0.583 h 4.87 c 0.281,-0.175 0.606,-0.281 0.954,-0.293 m 3.6,0 c 0.348,0.012 0.673,0.118 0.955,0.293 h 4.87 c 0.063,-0.192 0.122,-0.386 0.178,-0.582 h -5.957 c -0.01,0.095 -0.025,0.191 -0.046,0.29 m -5.305,1.119 h -3.82 c 0.078,0.196 0.16,0.39 0.246,0.581 h 3.383 c 0.036,-0.206 0.101,-0.401 0.191,-0.581 m 7.201,0.581 h 3.384 c 0.086,-0.19 0.168,-0.384 0.245,-0.581 h -3.82 c 0.09,0.18 0.155,0.375 0.191,0.581 m -6.082,1.409 h 1.134 c -0.059,-0.227 -0.25,-0.476 -0.528,-0.476 -0.281,0 -0.477,0.23 -0.606,0.476 m 3.638,0 h 1.134 c -0.128,-0.246 -0.325,-0.476 -0.605,-0.476 -0.277,0 -0.47,0.25 -0.528,0.476 m -7.599,-9.867 h 1.134 c -0.059,-0.227 -0.25,-0.476 -0.529,-0.476 -0.28,0 -0.477,0.23 -0.605,0.476 m 4.167,-0.476 c -0.278,0 -0.47,0.25 -0.528,0.477 h 1.133 c -0.129,-0.247 -0.325,-0.477 -0.605,-0.477 m 7.921,0 c -0.278,0 -0.47,0.25 -0.529,0.477 h 1.133 c -0.128,-0.247 -0.324,-0.477 -0.605,-0.477 m -3.561,0 c -0.28,0 -0.477,0.23 -0.605,0.477 h 1.133 c -0.058,-0.228 -0.25,-0.477 -0.528,-0.477 m -5.858,9.761 h -2.998 c 0.106,0.199 0.217,0.392 0.332,0.582 h 2.909 c -0.11,-0.117 -0.209,-0.434 -0.242,-0.582 m 7.113,0.582 h 2.908 c 0.115,-0.19 0.226,-0.383 0.332,-0.581 h -2.998 c -0.034,0.147 -0.133,0.464 -0.242,0.581"
     transform="translate(-189.437)" />
  <path
     style="fill:#fefefe;fill-rule:evenodd"
     inkscape:connector-curvature="0"
     id="path36"
     mask="url(#d)"
     d="m 278.358,19.226 c 0.814,1.286 0.728,2.23 0,3.568 z m 1.78,4.293 c 0.493,0 0.906,0.3 1.129,0.727 0.08,-0.18 0.135,-0.377 0.135,-0.591 0,-0.765 -0.584,-1.386 -1.307,-1.386 -0.236,0 -0.456,0.07 -0.646,0.188 l -0.459,0.675 -0.169,-0.13 c 0,0 0.71,-1.193 0.71,-1.928 0,-0.748 -0.464,-1.877 -1.173,-2.46 -0.71,0.583 -1.174,1.712 -1.174,2.46 0,0.735 0.71,1.929 0.71,1.929 l -0.169,0.13 -0.458,-0.676 a 1.217,1.217 0 0 0 -0.647,-0.188 c -0.722,0 -1.306,0.62 -1.306,1.386 0,0.214 0.054,0.41 0.135,0.591 0.223,-0.427 0.636,-0.727 1.128,-0.727 0.743,0 1.235,0.698 1.235,1.304 0,0.256 -0.04,0.487 -0.1,0.691 v 0.005 a 2.559,2.559 0 0 1 -0.254,0.582 h 1.8 a 2.558,2.558 0 0 1 -0.254,-0.582 v -0.005 c -0.06,-0.204 -0.1,-0.435 -0.1,-0.69 v -0.002 c 0,-0.606 0.492,-1.303 1.234,-1.303 z m 6.141,-4.293 c 0.814,1.286 0.727,2.23 0,3.568 z m 1.78,4.293 c 0.493,0 0.906,0.3 1.128,0.727 0.082,-0.18 0.136,-0.377 0.136,-0.591 0,-0.765 -0.585,-1.386 -1.307,-1.386 -0.236,0 -0.456,0.07 -0.646,0.188 l -0.459,0.675 -0.169,-0.13 c 0,0 0.71,-1.193 0.71,-1.928 0,-0.748 -0.464,-1.877 -1.173,-2.46 -0.71,0.583 -1.174,1.712 -1.174,2.46 0,0.735 0.71,1.929 0.71,1.929 l -0.169,0.13 -0.459,-0.676 a 1.215,1.215 0 0 0 -0.646,-0.188 c -0.722,0 -1.306,0.62 -1.306,1.386 0,0.214 0.054,0.41 0.135,0.591 0.223,-0.427 0.636,-0.727 1.128,-0.727 0.743,0 1.234,0.697 1.235,1.303 0,0.257 -0.04,0.488 -0.1,0.692 v 0.005 c -0.07,0.231 -0.162,0.426 -0.255,0.582 h 1.801 a 2.545,2.545 0 0 1 -0.253,-0.582 l -0.002,-0.005 c -0.06,-0.204 -0.1,-0.435 -0.1,-0.69 v -0.001 c 0,-0.606 0.492,-1.304 1.235,-1.304 z m -5.741,9.143 v -3.569 c 0.814,1.286 0.728,2.23 0,3.569 m 0,-4.182 c -0.71,0.584 -1.173,1.713 -1.173,2.46 0,0.736 0.71,1.93 0.71,1.93 l -0.17,0.129 -0.458,-0.675 a 1.217,1.217 0 0 0 -0.646,-0.188 c -0.722,0 -1.307,0.62 -1.307,1.386 0,0.214 0.054,0.41 0.135,0.591 0.223,-0.427 0.636,-0.728 1.129,-0.728 0.743,0 1.234,0.7 1.234,1.305 a 2.5,2.5 0 0 1 -0.351,1.273 h 1.795 a 2.497,2.497 0 0 1 -0.352,-1.273 v -0.003 c 0.003,-0.605 0.493,-1.302 1.235,-1.302 0.492,0 0.905,0.301 1.128,0.728 a 1.43,1.43 0 0 0 0.135,-0.591 c 0,-0.766 -0.584,-1.386 -1.306,-1.386 -0.237,0 -0.457,0.07 -0.646,0.188 l -0.46,0.675 -0.168,-0.129 c 0,0 0.71,-1.194 0.71,-1.93 0,-0.747 -0.465,-1.876 -1.174,-2.46"
     transform="translate(-189.437)" />
  <path
     style="fill:#fefefe;fill-rule:evenodd"
     inkscape:connector-curvature="0"
     id="path38"
     mask="url(#d)"
     d="m 280.94,35.381 h -4.42 c 0.147,0.203 0.298,0.396 0.452,0.582 h 3.698 c 0.096,-0.153 0.194,-0.347 0.27,-0.582 m 3.027,0.582 h 3.698 c 0.154,-0.186 0.305,-0.379 0.452,-0.582 h -4.42 c 0.075,0.235 0.174,0.429 0.27,0.582 M 283.22,2.727 a 0.908,0.908 0 0 0 -0.902,-0.91 0.907,0.907 0 0 0 -0.902,0.91 c 0,0.502 0.405,0.911 0.902,0.911 0.497,0 0.902,-0.409 0.902,-0.911 m -0.078,8.001 0.24,0.332 0.399,-0.67 -0.384,-0.645 h -2.157 l -0.384,0.645 0.398,0.67 0.241,-0.332 z m -3.529,0.349 0.351,0.222 0.111,-0.767 -0.604,-0.46 -2,0.78 -0.107,0.739 0.627,0.477 0.103,-0.398 z m 6.93,0.593 0.103,0.398 0.627,-0.477 -0.107,-0.739 -2,-0.78 -0.605,0.46 0.111,0.767 0.352,-0.222 z m -9.566,13.85 h -3.061 c -0.01,0.192 -0.018,0.386 -0.023,0.581 h 2.814 c 0.096,-0.153 0.195,-0.347 0.27,-0.582 M 287.93,26.1 h 2.813 a 18.072,18.072 0 0 0 -0.023,-0.58 h -3.06 c 0.075,0.234 0.174,0.428 0.27,0.58 m -3.303,0 c 0.097,-0.152 0.196,-0.346 0.271,-0.58 h -5.16 c 0.076,0.234 0.175,0.428 0.271,0.58 z"
     transform="translate(-189.437)" />
  <path
     style="fill:#fefefe;fill-rule:evenodd"
     inkscape:connector-curvature="0"
     id="path40"
     mask="url(#d)"
     d="m 288.657,6.812 -2.484,-1.047 -0.501,1.021 a 0.652,0.652 0 0 1 -0.84,0.318 c -0.264,-0.105 -0.505,-0.395 -0.406,-0.781 l 0.275,-1.18 -2.383,-1.004 -2.383,1.005 0.276,1.179 c 0.098,0.386 -0.142,0.676 -0.407,0.781 a 0.652,0.652 0 0 1 -0.84,-0.318 l -0.5,-1.021 -2.484,1.047 0.268,1.03 c 0.098,0.386 -0.143,0.675 -0.407,0.78 a 0.651,0.651 0 0 1 -0.84,-0.317 l -0.49,-0.873 -1.551,0.646 c -0.297,-0.589 -0.786,-0.43 -0.983,-0.333 l 2.3,4.463 c 0.62,1.367 0.353,2.356 0.318,2.666 0.725,-1.132 2.374,-2.213 2.652,-2.387 l -1.285,-0.958 c -0.01,0.169 0.022,0.425 0.066,0.628 l -0.513,0.408 -0.708,-1.243 c 2.12,-1.482 4.61,-2.368 7.13,-2.412 -0.111,-0.306 -0.27,-0.639 -0.89,-0.582 -2.268,0.207 -4.486,1.016 -6.555,2.442 l -1.127,-1.979 0.902,-0.353 c 0.501,0.823 1.112,0.914 1.806,0.632 0.68,-0.276 0.932,-0.82 0.776,-1.662 l 1.383,-0.552 c 0.587,0.955 1.17,1.003 1.832,0.733 0.676,-0.274 0.896,-0.925 0.744,-1.757 0,0 0.391,-0.156 0.81,-0.33 0.222,1.535 0.7,2.395 0.7,2.395 0,0 0.479,-0.86 0.7,-2.394 0.42,0.173 0.81,0.33 0.81,0.33 -0.152,0.831 0.068,1.482 0.744,1.756 0.663,0.27 1.246,0.222 1.832,-0.733 l 1.384,0.552 c -0.156,0.842 0.096,1.386 0.777,1.662 0.692,0.282 1.304,0.19 1.804,-0.632 l 0.902,0.353 -1.127,1.979 c -2.068,-1.426 -4.286,-2.235 -6.554,-2.442 -0.62,-0.057 -0.78,0.276 -0.89,0.582 2.52,0.044 5.01,0.93 7.13,2.412 l -0.709,1.243 -0.512,-0.408 c 0.043,-0.203 0.075,-0.46 0.066,-0.628 l -1.285,0.958 c 0.277,0.174 1.927,1.255 2.651,2.387 -0.035,-0.31 -0.3,-1.299 0.319,-2.666 l 2.3,-4.463 c -0.197,-0.097 -0.686,-0.256 -0.983,0.333 l -1.551,-0.646 -0.49,0.873 a 0.652,0.652 0 0 1 -0.84,0.318 C 288.531,8.517 288.291,8.228 288.389,7.842 Z M 252.504,25.46 a 0.556,0.556 0 0 0 0.548,0.563 0.555,0.555 0 0 0 0.557,-0.554 0.555,0.555 0 0 0 -0.548,-0.563 0.555,0.555 0 0 0 -0.557,0.554 m -0.796,3.368 -0.025,0.003 0.222,1.578 0.003,0.024 0.239,-0.034 0.002,-0.018 c 0.02,-0.14 0.031,-0.338 0.03,-0.56 l 1.39,-0.198 0.117,0.829 c 0.03,0.206 0.134,0.264 0.21,0.29 l 0.199,-0.026 -0.16,-1.146 1.19,-0.17 0.153,1.096 a 2.433,2.433 0 0 0 -0.502,0.25 l -0.013,0.008 0.028,0.197 0.016,0.004 c 0.14,0.035 0.424,0.07 0.616,0.043 a 0.722,0.722 0 0 0 0.25,-0.072 l 0.014,-0.008 -0.364,-2.59 -0.024,0.003 c -0.225,0.031 -0.255,0.135 -0.27,0.527 l -2.92,0.418 c -0.124,-0.385 -0.187,-0.48 -0.401,-0.448 m 1.376,4.002 c 0.206,-0.285 0.55,-0.5 0.994,-0.62 0.45,-0.121 0.856,-0.113 1.175,0.023 a 1.068,1.068 0 0 1 0.62,0.733 c 0.093,0.344 0.036,0.673 -0.161,0.95 -0.203,0.287 -0.545,0.502 -0.988,0.622 -0.447,0.121 -0.855,0.113 -1.179,-0.025 a 1.065,1.065 0 0 1 -0.629,-0.734 1.093,1.093 0 0 1 0.168,-0.948 m 0.304,2.117 0.025,0.014 c 0.434,0.242 0.966,0.296 1.499,0.152 0.55,-0.149 0.961,-0.446 1.19,-0.861 0.217,-0.39 0.262,-0.857 0.131,-1.349 a 1.794,1.794 0 0 0 -0.827,-1.11 l -0.029,-0.016 c -0.427,-0.237 -0.956,-0.288 -1.486,-0.144 -0.552,0.15 -0.968,0.444 -1.202,0.853 -0.222,0.387 -0.271,0.85 -0.14,1.34 0.128,0.485 0.426,0.882 0.839,1.121 m 3.712,1.512 0.01,0.013 0.225,-0.087 -0.56,-1.47 -0.022,0.01 c -0.205,0.079 -0.215,0.2 -0.136,0.6 l -2.75,1.068 c -0.207,-0.351 -0.295,-0.434 -0.499,-0.355 l -0.023,0.01 0.56,1.469 0.224,-0.087 -0.001,-0.018 a 3.9,3.9 0 0 0 -0.07,-0.504 l 2.76,-1.07 c 0.08,0.134 0.191,0.31 0.281,0.42 m 1.401,3.051 c 0.077,0.105 0.187,0.294 0.242,0.39 0.128,0.22 0.177,0.42 0.143,0.595 -0.033,0.175 -0.15,0.322 -0.345,0.438 -0.148,0.087 -0.373,0.174 -0.612,0.092 -0.26,-0.09 -0.48,-0.354 -0.656,-0.788 z m -0.481,2.005 c 0.293,0.095 0.595,0.063 0.852,-0.089 0.274,-0.162 0.433,-0.383 0.47,-0.655 0.037,-0.267 -0.044,-0.573 -0.24,-0.91 -0.04,-0.07 -0.13,-0.219 -0.226,-0.375 -0.108,-0.178 -0.22,-0.36 -0.275,-0.457 l -0.336,-0.578 -0.02,0.012 c -0.196,0.116 -0.186,0.225 -0.052,0.592 l -2.546,1.508 c -0.26,-0.31 -0.353,-0.372 -0.54,-0.262 l -0.02,0.012 0.798,1.376 0.012,0.021 0.208,-0.122 -0.004,-0.018 a 3.67,3.67 0 0 0 -0.183,-0.53 l 1.052,-0.624 c 0.33,0.734 0.753,1.003 1.05,1.099 z m 0.594,4.034 c 0.49,0.279 1.085,0.208 1.63,-0.226 l 1.458,-1.154 c 0.298,0.27 0.4,0.319 0.57,0.184 l 0.018,-0.016 -0.917,-1.174 -0.188,0.15 0.005,0.016 c 0.042,0.133 0.155,0.332 0.247,0.492 l -1.428,1.138 c -0.602,0.48 -1.106,0.468 -1.5,-0.036 -0.433,-0.556 -0.348,-1.044 0.27,-1.537 l 1.429,-1.138 c 0.133,0.127 0.298,0.284 0.416,0.356 l 0.015,0.009 0.188,-0.15 -0.986,-1.261 -0.019,0.015 c -0.17,0.136 -0.146,0.246 0.045,0.602 l -1.455,1.16 c -0.42,0.334 -0.64,0.68 -0.672,1.054 -0.03,0.351 0.108,0.715 0.419,1.113 0.136,0.174 0.29,0.308 0.455,0.403 m 2.462,2.058 0.86,-0.913 0.446,0.427 c 0.354,0.34 0.388,0.7 0.095,1.01 -0.313,0.332 -0.705,0.333 -1.049,0.003 l -0.346,-0.333 c -0.074,-0.07 -0.074,-0.121 -0.006,-0.194 z m 1.962,-2.082 0.366,0.351 c 0.299,0.288 0.312,0.594 0.037,0.885 -0.207,0.22 -0.543,0.352 -0.864,0.065 l -0.402,-0.385 z m -1.438,3.18 c 0.476,0.27 0.95,0.211 1.322,-0.184 0.326,-0.346 0.343,-0.767 0.051,-1.193 0.35,0.117 0.7,0.032 0.95,-0.233 0.272,-0.288 0.46,-0.76 -0.18,-1.376 l -1.208,-1.16 -0.017,0.018 c -0.156,0.166 -0.116,0.267 0.114,0.582 l -2.03,2.155 c -0.324,-0.216 -0.426,-0.25 -0.582,-0.085 l -0.017,0.018 1.21,1.163 c 0.129,0.123 0.258,0.22 0.387,0.295 z m 4.526,-0.663 0.016,0.006 0.144,-0.195 -1.21,-0.906 -0.02,-0.015 -0.014,0.02 c -0.134,0.181 -0.085,0.27 0.186,0.56 l -1.762,2.398 c -0.345,-0.178 -0.452,-0.196 -0.584,-0.017 l -0.014,0.02 2.148,1.609 0.013,0.01 0.014,-0.01 a 0.803,0.803 0 0 0 0.2,-0.194 c 0.122,-0.167 0.239,-0.452 0.276,-0.594 l 0.004,-0.016 -0.158,-0.119 -0.014,0.008 a 2.522,2.522 0 0 0 -0.482,0.37 l -0.973,-0.73 1.772,-2.412 c 0.137,0.07 0.325,0.164 0.458,0.207 m 2.559,1.696 0.017,0.004 0.126,-0.206 -1.309,-0.81 -0.02,-0.013 -0.013,0.021 c -0.114,0.189 -0.05,0.291 0.255,0.56 l -1.539,2.537 c -0.375,-0.15 -0.495,-0.163 -0.61,0.026 l -0.012,0.02 1.308,0.81 0.02,0.013 0.126,-0.207 -0.012,-0.014 a 3.819,3.819 0 0 0 -0.358,-0.356 l 1.544,-2.546 c 0.144,0.058 0.34,0.129 0.477,0.161 m 0.742,3.93 a 1.079,1.079 0 0 1 -0.61,-0.74 c -0.083,-0.344 -0.023,-0.747 0.172,-1.167 0.404,-0.87 1.066,-1.214 1.73,-0.9 l 0.092,0.049 c 0.586,0.338 0.727,1.052 0.356,1.852 -0.401,0.861 -1.084,1.218 -1.74,0.906 m 2.296,-0.68 c 0.242,-0.52 0.282,-1.029 0.116,-1.474 -0.155,-0.418 -0.48,-0.754 -0.936,-0.97 -0.955,-0.453 -1.995,-0.037 -2.471,0.99 -0.242,0.521 -0.288,1.032 -0.13,1.476 0.149,0.421 0.466,0.757 0.919,0.971 0.045,0.022 0.092,0.04 0.112,0.049 0.259,0.774 0.662,1.345 1.146,1.625 0.037,0.02 0.073,0.04 0.11,0.057 0.431,0.204 0.796,0.119 0.943,0.036 l 0.012,-0.007 0.004,-0.199 -0.02,-0.004 -0.049,-0.01 a 1.928,1.928 0 0 1 -0.482,-0.156 c -0.45,-0.215 -0.856,-0.625 -1.203,-1.223 0.799,0.103 1.552,-0.348 1.93,-1.16 m 1.417,2.487 c 0.142,0.083 0.309,0.153 0.503,0.21 0.412,0.124 0.8,0.087 1.12,-0.105 0.32,-0.191 0.556,-0.525 0.685,-0.964 l 0.532,-1.794 c 0.398,0.047 0.508,0.028 0.57,-0.182 l 0.007,-0.023 -1.397,-0.418 -0.024,-0.007 -0.067,0.232 0.013,0.01 c 0.11,0.084 0.316,0.18 0.482,0.259 l -0.517,1.762 c -0.106,0.363 -0.263,0.62 -0.466,0.761 -0.209,0.147 -0.471,0.175 -0.779,0.083 -0.353,-0.105 -0.575,-0.279 -0.678,-0.53 -0.094,-0.228 -0.087,-0.517 0.02,-0.884 l 0.517,-1.762 c 0.181,0.026 0.406,0.059 0.544,0.049 l 0.017,-0.002 0.068,-0.231 -1.503,-0.45 -0.023,-0.007 -0.007,0.023 c -0.062,0.21 0.02,0.287 0.38,0.467 l -0.526,1.794 c -0.152,0.52 -0.135,0.93 0.054,1.255 0.106,0.18 0.262,0.332 0.474,0.454 m 5.85,-2.151 c 0.012,0.21 0.039,0.368 0.092,0.557 l 0.005,0.015 0.194,0.03 0.009,-0.014 c 0.072,-0.125 0.188,-0.389 0.217,-0.584 a 0.748,0.748 0 0 0 0.005,-0.261 l -0.004,-0.017 -2.593,-0.397 -0.024,-0.004 -0.004,0.024 c -0.034,0.227 0.056,0.286 0.423,0.412 l -0.443,2.942 c -0.387,0.01 -0.49,0.04 -0.524,0.266 l -0.004,0.025 2.595,0.397 0.017,0.003 0.008,-0.015 c 0.04,-0.07 0.072,-0.17 0.086,-0.265 0.031,-0.206 0,-0.498 -0.034,-0.64 l -0.003,-0.016 -0.195,-0.03 -0.009,0.014 c -0.097,0.15 -0.175,0.317 -0.251,0.538 l -1.15,-0.176 0.212,-1.41 0.875,0.134 c 0.204,0.03 0.289,-0.054 0.335,-0.12 l 0.003,-0.005 0.03,-0.195 -1.188,-0.182 0.181,-1.2 z m 2.655,1.948 -0.005,0.007 v 0.339 h 0.857 c 0.285,0 0.385,-0.01 0.471,-0.122 l 0.005,-0.006 v -0.34 h -0.857 c -0.286,10e-4 -0.385,0.01 -0.471,0.122 m 3.916,1.413 0.003,0.024 1.52,-0.202 0.024,-0.003 -0.03,-0.241 -0.019,-0.003 a 3.08,3.08 0 0 0 -0.498,-0.038 l -0.309,-2.369 -10e-4,-0.013 -0.013,-0.006 a 0.555,0.555 0 0 0 -0.305,-0.03 2.22,2.22 0 0 0 -0.648,0.217 l -0.015,0.008 0.026,0.195 0.018,0.002 c 0.106,0.016 0.242,0.032 0.453,0.033 l 0.264,2.027 c -0.396,0.116 -0.5,0.181 -0.47,0.399 m 2.823,-2.186 0.222,0.041 c 0.483,0.095 0.744,0.215 0.83,0.607 0.075,0.345 -0.13,0.625 -0.525,0.713 -0.42,0.094 -0.723,-0.093 -0.812,-0.5 -0.09,-0.405 0.092,-0.663 0.285,-0.862 m -0.596,-1.069 c -0.037,-0.17 -0.01,-0.316 0.08,-0.43 a 0.661,0.661 0 0 1 0.385,-0.218 0.582,0.582 0 0 1 0.46,0.071 0.636,0.636 0 0 1 0.246,0.4 c 0.058,0.27 -0.017,0.519 -0.23,0.759 l -0.064,-0.015 c -0.46,-0.086 -0.791,-0.176 -0.877,-0.567 m -0.223,2.09 a 0.863,0.863 0 0 0 0.414,0.598 c 0.25,0.143 0.587,0.172 0.98,0.085 0.698,-0.157 1.113,-0.694 0.985,-1.278 -0.117,-0.533 -0.432,-0.723 -0.936,-0.851 0.286,-0.178 0.575,-0.486 0.468,-0.976 -0.095,-0.431 -0.476,-0.83 -1.263,-0.654 -0.337,0.075 -0.604,0.231 -0.771,0.451 a 0.862,0.862 0 0 0 -0.16,0.717 c 0.117,0.535 0.477,0.718 0.827,0.817 -0.424,0.254 -0.632,0.667 -0.544,1.091 m 3.349,0.098 0.007,0.023 1.462,-0.468 0.023,-0.008 -0.072,-0.231 h -0.018 c -0.104,0.001 -0.273,0.011 -0.498,0.05 l -0.72,-2.289 -0.012,-0.003 a 0.556,0.556 0 0 0 -0.307,0.024 2.232,2.232 0 0 0 -0.6,0.328 l -0.013,0.011 0.06,0.187 h 0.018 c 0.106,-0.003 0.242,-0.011 0.452,-0.048 l 0.612,1.949 c -0.369,0.184 -0.46,0.266 -0.394,0.475 m 2.507,-3.029 c 0.212,-0.09 0.407,-0.084 0.581,0.017 h 0.001 c 0.162,0.094 0.299,0.268 0.396,0.503 0.101,0.245 0.131,0.477 0.087,0.67 a 0.557,0.557 0 0 1 -0.334,0.402 0.63,0.63 0 0 1 -0.587,-0.031 c -0.4,-0.23 -0.615,-0.827 -0.647,-0.921 a 0.891,0.891 0 0 1 0.504,-0.64 m -0.244,1.884 a 0.763,0.763 0 0 0 0.04,0.023 c 0.313,0.164 0.669,0.17 1.029,0.018 a 1.18,1.18 0 0 0 0.672,-0.739 1.458,1.458 0 0 0 -0.045,-0.987 c -0.122,-0.295 -0.322,-0.525 -0.57,-0.645 -0.266,-0.131 -0.565,-0.133 -0.865,-0.006 a 1.038,1.038 0 0 0 -0.629,0.718 c -0.166,-0.87 0.193,-1.673 0.977,-2.17 l 0.02,-0.012 -0.136,-0.209 -0.019,0.008 c -1.24,0.535 -1.74,1.79 -1.218,3.055 0.184,0.446 0.44,0.772 0.744,0.946 m 4.247,-2.783 a 0.555,0.555 0 0 0 0.557,-0.554 0.556,0.556 0 0 0 -0.548,-0.563 0.556,0.556 0 0 0 -0.558,0.554 0.556,0.556 0 0 0 0.549,0.563 m -45.022,-32.723 -0.013,0.001 -0.006,0.011 c -0.07,0.126 -0.196,0.567 -0.25,0.873 -0.16,0.908 0.16,1.649 0.838,2.04 0.207,0.119 0.448,0.206 0.718,0.254 1.112,0.2 1.948,-0.338 2.13,-1.371 0.13,-0.735 -0.235,-1.171 -0.399,-1.325 l -0.01,-0.009 -0.012,0.003 a 0.557,0.557 0 0 0 -0.189,0.123 l -0.012,0.014 0.018,0.03 c 0.091,0.146 0.305,0.488 0.22,0.97 -0.066,0.372 -0.27,0.657 -0.59,0.826 -0.304,0.16 -0.704,0.206 -1.126,0.13 -0.48,-0.087 -0.833,-0.264 -1.05,-0.53 -0.21,-0.255 -0.281,-0.577 -0.214,-0.956 0.043,-0.24 0.122,-0.423 0.17,-0.518 0.309,0 0.54,-0.055 0.626,-0.08 l 0.015,-0.003 0.034,-0.196 -0.014,-0.009 c -0.126,-0.08 -0.373,-0.221 -0.606,-0.263 a 1.08,1.08 0 0 0 -0.278,-0.015 m 2.448,-1.336 -1.397,-1.022 1.726,-0.016 -0.328,1.038 z m -1.29,-1.562 c -0.251,0.004 -0.433,0.008 -0.544,0.358 l -0.083,0.265 2.865,2.129 c -0.02,0.256 -0.003,0.376 0.113,0.443 a 0.392,0.392 0 0 0 0.076,0.033 l 0.023,0.007 0.393,-1.242 0.007,-0.024 -0.23,-0.074 -0.01,0.016 a 4.156,4.156 0 0 0 -0.24,0.439 l -0.784,-0.571 0.398,-1.26 0.969,-0.01 a 4.397,4.397 0 0 0 -0.057,0.497 v 0.019 l 0.23,0.074 0.434,-1.375 0.007,-0.024 -0.023,-0.007 c -0.194,-0.063 -0.268,0.021 -0.422,0.278 l -3.107,0.028 h -0.014 z m 1.214,-3.396 -0.22,-0.098 -0.62,1.416 -0.01,0.023 0.022,0.01 c 0.2,0.09 0.293,0.01 0.516,-0.33 l 2.694,1.204 c -0.099,0.396 -0.097,0.515 0.106,0.607 l 0.022,0.01 0.621,-1.417 0.01,-0.022 -0.22,-0.098 -0.011,0.013 a 3.81,3.81 0 0 0 -0.303,0.406 l -2.704,-1.208 c 0.039,-0.151 0.082,-0.356 0.095,-0.499 z m 1.319,-2.251 c 0.19,0.06 0.451,0.102 0.571,0.102 h 0.015 l 0.094,-0.174 -0.011,-0.013 c -0.263,-0.296 -0.503,-0.465 -0.712,-0.504 l -0.014,-0.003 -0.01,0.01 c -0.068,0.081 -0.276,0.325 -0.518,0.767 -0.38,0.698 -0.303,1.265 0.208,1.56 l 0.017,0.01 c 0.37,0.204 0.738,0.184 1.095,-0.062 0.167,-0.115 0.256,-0.192 0.369,-0.29 a 9.7,9.7 0 0 1 0.242,-0.206 c 0.262,-0.22 0.49,-0.32 0.812,-0.14 0.004,0 0.007,0.003 0.01,0.005 0.318,0.183 0.383,0.538 0.17,0.93 -0.14,0.257 -0.331,0.426 -0.469,0.501 a 2.374,2.374 0 0 0 -0.641,-0.165 h -0.016 l -0.097,0.178 0.009,0.012 c 0.11,0.157 0.294,0.341 0.495,0.457 a 0.904,0.904 0 0 0 0.218,0.094 l 0.01,0.002 0.008,-0.005 c 0.109,-0.062 0.488,-0.31 0.79,-0.866 0.393,-0.72 0.279,-1.327 -0.312,-1.668 a 1.272,1.272 0 0 0 -0.021,-0.012 c -0.447,-0.248 -0.86,-0.172 -1.337,0.248 l -0.12,0.105 a 4.597,4.597 0 0 1 -0.333,0.277 c -0.258,0.197 -0.47,0.231 -0.684,0.112 l -0.01,-0.005 c -0.289,-0.167 -0.334,-0.466 -0.129,-0.845 0.114,-0.207 0.233,-0.344 0.3,-0.412 m 1.89,-3.447 -0.014,-0.004 -0.01,0.01 c -0.077,0.071 -0.313,0.29 -0.602,0.7 -0.461,0.655 -0.445,1.232 0.043,1.584 0.342,0.246 0.712,0.269 1.095,0.066 0.179,-0.094 0.276,-0.16 0.399,-0.245 0.072,-0.049 0.152,-0.104 0.264,-0.175 0.285,-0.189 0.52,-0.262 0.822,-0.046 a 0.559,0.559 0 0 1 0.247,0.413 c 0.014,0.168 -0.046,0.354 -0.175,0.537 a 1.28,1.28 0 0 1 -0.522,0.443 2.364,2.364 0 0 0 -0.618,-0.238 l -0.016,-0.003 -0.117,0.165 0.008,0.014 c 0.107,0.199 0.312,0.447 0.54,0.578 a 0.77,0.77 0 0 0 0.105,0.051 l 0.009,0.004 0.009,-0.004 c 0.115,-0.05 0.519,-0.25 0.883,-0.767 0.478,-0.679 0.427,-1.3 -0.139,-1.707 -0.415,-0.298 -0.833,-0.27 -1.356,0.09 l -0.13,0.09 c -0.138,0.096 -0.22,0.153 -0.363,0.237 -0.278,0.165 -0.492,0.174 -0.691,0.031 -0.277,-0.199 -0.291,-0.504 -0.04,-0.86 0.136,-0.193 0.27,-0.314 0.344,-0.374 0.183,0.083 0.437,0.154 0.556,0.168 l 0.014,0.001 0.114,-0.162 -0.01,-0.014 c -0.227,-0.324 -0.445,-0.52 -0.65,-0.583 m 2.336,-2.285 c 0.177,0.102 0.321,0.165 0.506,0.224 l 0.015,0.005 0.131,-0.148 -0.007,-0.015 a 1.971,1.971 0 0 0 -0.363,-0.505 0.734,0.734 0 0 0 -0.214,-0.147 l -0.016,-0.006 -1.754,1.97 -0.017,0.018 0.019,0.016 c 0.17,0.153 0.267,0.11 0.573,-0.13 l 2.19,1.99 c -0.204,0.333 -0.236,0.437 -0.068,0.59 l 0.019,0.016 1.767,-1.984 -0.008,-0.015 A 0.818,0.818 0 0 0 262.918,6.35 1.998,1.998 0 0 0 262.37,6.028 l -0.016,-0.006 -0.132,0.148 0.007,0.015 c 0.07,0.164 0.166,0.321 0.306,0.507 l -0.777,0.873 -1.05,-0.953 0.592,-0.665 c 0.138,-0.155 0.115,-0.273 0.085,-0.349 l -0.146,-0.137 -0.804,0.902 -0.894,-0.812 0.77,-0.865 0.006,0.003 m 3.044,-2.831 0.487,-0.37 c 0.713,-0.545 1.41,-0.438 1.961,0.299 0.306,0.408 0.449,0.77 0.439,1.106 -0.012,0.37 -0.21,0.698 -0.608,1 l -0.373,0.286 c -0.083,0.062 -0.129,0.055 -0.19,-0.027 z m 1.175,3.285 0.014,0.02 1.374,-1.048 c 0.467,-0.356 0.743,-0.803 0.796,-1.292 0.052,-0.47 -0.101,-0.958 -0.443,-1.414 -0.659,-0.882 -1.616,-0.98 -2.559,-0.261 l -1.382,1.054 0.015,0.02 c 0.136,0.183 0.242,0.16 0.587,-0.018 l 1.775,2.374 c -0.263,0.287 -0.314,0.383 -0.177,0.565 z m 3.185,-2.369 0.012,0.021 2.282,-1.312 0.015,-0.008 -0.003,-0.017 a 0.815,0.815 0 0 0 -0.095,-0.262 2.016,2.016 0 0 0 -0.419,-0.481 l -0.013,-0.01 -0.171,0.098 10e-4,0.016 c 0.016,0.178 0.057,0.358 0.133,0.58 l -1.011,0.58 -0.698,-1.239 0.769,-0.442 c 0.175,-0.1 0.193,-0.217 0.19,-0.298 h -0.417 L 267.572,0.417 267.337,0 h -0.627 l 1.26,2.236 c -0.298,0.25 -0.36,0.339 -0.249,0.538 M 272.075,0.04 C 272,0.192 271.852,0.317 271.647,0.404 a 1.26,1.26 0 0 1 -0.675,0.1 A 2.444,2.444 0 0 0 270.594,0 h -0.123 l -0.098,0.042 v 0.015 c -0.015,0.26 0.049,0.647 0.22,0.878 l 0.007,0.008 0.01,0.002 c 0.123,0.019 0.57,0.062 1.15,-0.185 0.36,-0.153 0.622,-0.367 0.758,-0.618 0.025,-0.046 0.04,-0.094 0.057,-0.142 h -0.49 c -0.005,0.013 -0.003,0.028 -0.01,0.04 m 31.722,42.493 -0.018,-0.017 -0.944,1.073 0.18,0.16 0.015,-0.008 a 3.84,3.84 0 0 0 0.41,-0.302 l 0.536,0.481 v -0.557 l -0.258,-0.232 c 0.21,-0.345 0.24,-0.453 0.079,-0.598 m 0.146,5.346 0.018,0.016 0.015,-0.018 V 47.36 c -0.16,0.276 -0.18,0.387 -0.033,0.519 m 0.033,-2.959 -2.124,-0.256 -0.012,-0.002 -0.078,0.089 c -0.1,0.114 -0.12,0.239 -0.058,0.371 0.056,0.12 0.172,0.233 0.278,0.328 l 1.994,1.789 v -0.557 l -1.592,-1.428 1.592,0.203 v -0.536 z m -2.292,4.482 a 2.342,2.342 0 0 0 -0.5,-0.297 l -0.013,-0.005 -0.15,0.13 0.007,0.016 c 0.144,0.37 0.31,0.613 0.493,0.724 l 0.011,0.007 0.013,-0.007 c 0.092,-0.051 0.373,-0.206 0.75,-0.535 0.604,-0.525 0.726,-1.09 0.334,-1.549 -0.275,-0.322 -0.628,-0.434 -1.048,-0.33 -0.195,0.049 -0.305,0.09 -0.445,0.142 -0.08,0.03 -0.173,0.065 -0.298,0.107 -0.322,0.114 -0.57,0.127 -0.81,-0.155 -0.243,-0.285 -0.184,-0.645 0.155,-0.94 0.22,-0.191 0.459,-0.282 0.613,-0.304 0.133,0.125 0.35,0.29 0.544,0.381 l 0.015,0.007 0.152,-0.133 -0.004,-0.015 c -0.065,-0.252 -0.242,-0.6 -0.477,-0.767 l -0.008,-0.006 -0.01,0.002 c -0.124,0.02 -0.563,0.117 -1.04,0.532 -0.296,0.257 -0.48,0.542 -0.534,0.823 -0.057,0.303 0.031,0.595 0.265,0.869 0.332,0.39 0.745,0.464 1.338,0.24 l 0.15,-0.057 c 0.155,-0.06 0.249,-0.095 0.406,-0.141 0.31,-0.093 0.52,-0.052 0.68,0.136 0.221,0.26 0.163,0.56 -0.164,0.845 -0.179,0.155 -0.339,0.24 -0.425,0.28"
     transform="translate(-189.437)" />
  <path
     style="fill:#fefefe;fill-rule:evenodd"
     inkscape:connector-curvature="0"
     id="path42"
     mask="url(#d)"
     d="m 303.976,50.85 c -5.787,5.118 -13.36,8.227 -21.658,8.227 -18.17,0 -32.9,-14.877 -32.9,-33.23 A 33.285,33.285 0 0 1 261.65,0 h -4.063 a 36.01,36.01 0 0 0 -10.868,25.848 c 0,19.856 15.938,35.953 35.598,35.953 8.151,0 15.658,-2.773 21.658,-7.428 V 50.85 Z"
     transform="translate(-189.437)" />
</svg>
