<svg viewBox="0 0 144 42" fill="none" xmlns="http://www.w3.org/2000/svg" role="img" aria-label="La CIPAV" width="144" height="42">
    <rect width="144" height="42" fill="#00798C"/>
    <g clip-path="url(#clip0_3408_22136)">
        <path d="M67.162 23.5256C66.4309 22.9277 65.2865 22.0152 65.0639 21.8579C64.746 21.6061 64.3328 21.6376 64.0785 21.9208C62.2983 23.9346 59.3419 25.3506 56.2265 25.3506C50.3455 25.3506 45.5771 20.6307 45.5771 14.8094C45.5771 8.98809 50.3455 4.26813 56.2265 4.26813C59.3101 4.26813 61.5671 5.49532 63.2519 6.91131C63.5698 7.16304 63.9831 7.16304 64.2374 6.87985C64.4281 6.69105 65.4454 5.68412 66.1448 4.99186C66.4945 4.64573 66.4944 4.17373 66.113 3.8276C63.7288 1.68788 60.232 0.0830994 56.1947 0.0830994C47.9931 0.0830994 41.3173 6.65958 41.3173 14.8094C41.3173 22.9277 47.9931 29.5357 56.1947 29.5357C60.5816 29.5357 64.5553 27.7106 67.2256 24.6584C67.5753 24.3122 67.5435 23.8402 67.162 23.5256Z" fill="white"/>
        <path d="M115.259 6.87983C115.132 6.6281 114.878 6.4393 114.56 6.4393H111.158C110.841 6.4393 110.586 6.6281 110.459 6.87983L102.989 22.141C102.925 22.2354 102.893 22.3613 102.893 22.4872C102.893 22.8962 103.243 23.2424 103.656 23.2424H106.644C106.962 23.2424 107.217 23.0536 107.344 22.7704C107.566 22.3298 107.916 21.6061 108.329 20.7251H117.326C117.739 21.6061 118.088 22.3298 118.311 22.7704C118.438 23.0221 118.692 23.2424 119.01 23.2424H122.03C122.444 23.2424 122.793 22.8962 122.793 22.4872C122.793 22.3613 122.762 22.2354 122.698 22.141L115.259 6.87983ZM109.919 17.3896C111.381 14.2744 112.843 11.0649 112.843 11.0649C112.843 11.0649 114.337 14.2744 115.768 17.3896H109.919Z" fill="white"/>
        <path d="M142.884 6.4393H139.896C139.578 6.4393 139.324 6.6281 139.197 6.9113C138.148 9.05101 133.729 18.1763 133.729 18.1763C133.729 18.1763 129.31 9.05101 128.261 6.9113C128.134 6.65957 127.88 6.4393 127.562 6.4393H124.542C124.128 6.4393 123.779 6.78543 123.779 7.1945C123.779 7.32036 123.811 7.44623 123.874 7.54063L131.345 22.8018C131.472 23.0536 131.726 23.2424 132.044 23.2424H135.445C135.763 23.2424 136.018 23.0536 136.145 22.8018L143.615 7.54063C143.679 7.44623 143.711 7.32036 143.711 7.1945C143.647 6.78543 143.297 6.4393 142.884 6.4393Z" fill="white"/>
        <path d="M76.1901 6.4393H73.488C73.0748 6.4393 72.7251 6.78543 72.7251 7.1945V22.4557C72.7251 22.8648 73.0748 23.2109 73.488 23.2109H76.1901C76.6034 23.2109 76.9531 22.8648 76.9531 22.4557V7.1945C76.9531 6.78543 76.6352 6.4393 76.1901 6.4393Z" fill="white"/>
        <path d="M13.3427 21.0082H2.78866V7.1945C2.78866 6.78543 2.43898 6.4393 2.02572 6.4393H0.913093C0.499832 6.4393 0.150146 6.78543 0.150146 7.1945V22.4557C0.150146 22.8648 0.499832 23.2109 0.913093 23.2109H13.3109C13.7242 23.2109 14.0739 22.8648 14.0739 22.4557V21.7634C14.1057 21.3544 13.756 21.0082 13.3427 21.0082Z" fill="white"/>
        <path d="M94.2783 6.4393H86.3628H85.5045C85.0912 6.4393 84.7415 6.78543 84.7415 7.1945V22.4557C84.7415 22.8648 85.0912 23.2109 85.5045 23.2109H88.2066C88.6198 23.2109 88.9695 22.8648 88.9695 22.4557V19.4664H94.2783C97.9023 19.4664 100.859 16.54 100.859 12.9528C100.859 9.36567 97.9023 6.4393 94.2783 6.4393ZM94.2783 15.659H88.9695V10.3097H94.2783C95.7724 10.3097 96.9804 11.5054 96.9804 12.9843C96.9804 14.4318 95.7724 15.659 94.2783 15.659Z" fill="white"/>
        <path d="M29.0149 6.87983C28.8877 6.6281 28.6334 6.4393 28.3155 6.4393H25.9313C25.6134 6.4393 25.3591 6.6281 25.2319 6.87983L17.7614 22.141C17.6979 22.2354 17.6661 22.3613 17.6661 22.4872C17.6661 22.8962 18.0158 23.2424 18.429 23.2424H19.8278C20.1456 23.2424 20.4 23.0536 20.5271 22.7704L21.8623 19.9069H32.3527C32.9567 21.1971 33.4654 22.2669 33.7197 22.7704C33.8468 23.0221 34.1012 23.2424 34.4191 23.2424H35.8178C36.231 23.2424 36.5807 22.8962 36.5807 22.4872C36.5807 22.3613 36.5489 22.2354 36.4854 22.141L29.0149 6.87983ZM22.8159 17.8931L27.1393 8.67342C27.1393 8.67342 29.4917 13.771 31.4308 17.8931H22.8159Z" fill="white"/>
        <path d="M56.2265 41.9964C44.9731 41.9964 34.4509 38.9756 25.3909 33.7207C25.0412 33.5004 24.9141 33.0284 25.1366 32.6823L26.5353 30.3853C26.7578 30.0391 27.2029 29.9133 27.5844 30.1335C36.0085 35.0108 45.7678 37.8113 56.2265 37.8113C66.6852 37.8113 76.4763 35.0108 84.8687 30.1335C85.2184 29.9133 85.6952 30.0391 85.9177 30.3853L87.3165 32.6823C87.539 33.0284 87.4118 33.5004 87.0621 33.7207C78.0022 38.9441 67.4799 41.9964 56.2265 41.9964Z" fill="#00A5C4"/>
    </g>
    <defs>
        <clipPath id="clip0_3408_22136">
            <rect width="143.775" height="42" fill="white"/>
        </clipPath>
    </defs>
</svg>
