<?xml version="1.0" encoding="UTF-8"?>
<svg id="Calque_1" xmlns="http://www.w3.org/2000/svg" version="1.1" viewBox="0 0 261 116">
  <!-- Generator: Adobe Illustrator 29.5.0, SVG Export Plug-In . SVG Version: 2.1.0 Build 137)  -->
  <defs>
    <style>
      .st0 {
        fill: #000091;
      }

      .st1 {
        fill: #9e9d9c;
      }

      .st2 {
        opacity: .5;
      }

      .st2, .st3 {
        fill: #fff;
      }

      .st4 {
        fill: #e1000f;
      }

      .st5 {
        fill: #00798c;
      }
    </style>
  </defs>
  <rect class="st3" x=".7" width="260" height="116"/>
  <g>
    <rect class="st2" x="15.7" y="15.1" width="41.6" height="15.1"/>
    <path d="M18.1,44.6h1.2l3,4.6h2.8l-3.6-5c1.2-.6,1.8-1.6,1.8-2.9,0-2.1-1.5-3.4-4.1-3.4h-3.5v11.4h2.3v-4.6ZM18.1,39.8h1.3c1,0,1.5.5,1.5,1.4s-.6,1.4-1.5,1.4h-1.3v-2.8ZM32.9,34.6h-2.4l-1.8,2.2h2.1l2.1-2.2ZM33.1,47.2h-4.3v-2.8h3.7v-2h-3.7v-2.6h4.3v-2h-6.6v11.4h6.6v-2ZM38.1,44.6h1.4c2.5,0,4-1.3,4-3.4s-1.5-3.4-4-3.4h-3.8v11.4h2.3v-4.6ZM38.1,39.8h1.5c1,0,1.6.5,1.6,1.4s-.6,1.4-1.6,1.4h-1.5v-2.8ZM49.9,49.5c2.9,0,4.6-1.8,4.6-4.8v-6.9h-2.3v7.1c0,1.5-.9,2.4-2.3,2.4s-2.3-.9-2.3-2.4v-7.1h-2.3v6.9c0,3,1.8,4.8,4.6,4.8ZM65.1,45.8c0-1.2-.7-2.2-1.9-2.7.8-.5,1.2-1.3,1.2-2.2,0-1.9-1.4-3.1-3.8-3.1h-3.2v11.4h3.5c2.6,0,4.2-1.3,4.2-3.4ZM59.7,39.8h1c.9,0,1.4.5,1.4,1.2s-.5,1.3-1.4,1.3h-1v-2.5ZM59.7,44.2h1.3c1.1,0,1.7.5,1.7,1.5s-.7,1.5-1.7,1.5h-1.3v-3ZM74.1,47.1h-4.3v-9.3h-2.3v11.4h6.6v-2.1ZM78.4,37.8h-2.3v11.4h2.3v-11.4ZM93.2,52c.5,0,.8,0,1.2-.2v-2c-.2,0-.6.1-.8.1-.7,0-1.5-.3-2.4-1.1l-.7-.7c1.4-1.1,2.2-2.8,2.2-4.8,0-3.3-2.5-6-6-6s-6.1,2.8-6.1,6,2.5,6,6.1,6,1.1,0,1.6-.2l1.4,1.2c1.1,1,2.3,1.5,3.6,1.5ZM86.7,47.3c-2.1,0-3.7-1.7-3.7-3.9s1.5-3.9,3.7-3.9,3.7,1.7,3.7,3.9-1.5,3.9-3.7,3.9ZM104,44.7v-6.9h-2.3v7.1c0,1.5-.9,2.4-2.3,2.4s-2.3-.9-2.3-2.4v-7.1h-2.3v6.9c0,3,1.8,4.8,4.6,4.8s4.6-1.8,4.6-4.8ZM113.5,39.8v-2h-6.6v11.4h6.6v-2h-4.3v-2.8h3.7v-2h-3.7v-2.6h4.3ZM22.4,56.2v-2h-6.6v11.4h2.3v-4.8h3.7v-2h-3.7v-2.6h4.3ZM31.9,57.6c0-2.1-1.5-3.4-4.1-3.4h-3.5v11.4h2.3v-4.6h1.2l3,4.6h2.8l-3.6-5c1.2-.6,1.8-1.6,1.8-2.9ZM28,59h-1.3v-2.8h1.3c1,0,1.5.5,1.5,1.4s-.6,1.4-1.5,1.4ZM37.7,62.6h4.6l1.1,3h2.5l-4.3-11.4h-3l-4.3,11.4h2.5l1.1-3ZM40,56.4l1.6,4.3h-3.1l1.6-4.3ZM55.7,62.4l-5.1-8.2h-3v11.4h2.3v-8.2l5.1,8.2h3v-11.4h-2.3v8.2ZM66.2,56c1.3,0,2.3.6,3,1.6l1.8-1.4c-1-1.4-2.7-2.3-4.8-2.3-3.6,0-6.1,2.8-6.1,6s2,5.4,4.9,5.9l-1.4,2.4h2.1l1.4-2.4c1.7-.2,3-1.1,3.9-2.3l-1.8-1.4c-.7.9-1.7,1.6-3,1.6-2.1,0-3.7-1.7-3.7-3.9s1.5-3.9,3.7-3.9ZM75.8,54.2l-4.3,11.4h2.5l1.1-3h4.6l1.1,3h2.5l-4.3-11.4h-3ZM75.8,60.7l1.6-4.3,1.6,4.3h-3.1ZM84.9,65.6h2.3v-11.4h-2.3v11.4ZM93.5,55.9c.9,0,1.6.6,2.3,1.4l1.7-1.5c-1-1.2-2.3-1.9-4-1.9s-3.6,1.5-3.6,3.3c0,3.8,5.2,3.3,5.2,5.4s-.6,1.3-1.5,1.3-1.8-.5-2.5-1.4l-1.7,1.5c1,1.2,2.3,1.9,4.2,1.9s3.7-1.3,3.8-3.4c0-3.9-5.2-3.4-5.2-5.4s.5-1.2,1.3-1.2ZM99.8,65.6h6.6v-2h-4.3v-2.8h3.7v-2h-3.7v-2.6h4.3v-2h-6.6v11.4ZM46.8,96.4c-.7,0-1.5.6-1.8,1.4h.2c.2-.3.6-.7.9-.7l-1.3,3.3c-.1.3.1.5.3.5.6,0,1.4-.6,1.7-1.4h-.2c-.2.3-.6.7-.9.7l1.4-3.3c0-.3-.1-.5-.3-.5ZM43.7,96.4c-.6,0-1.2.7-1.9,1.5v-.6c0-.4-.1-.8-.5-.8s-.5.2-.7.5h0c.4,0,.6.7.3,1.4l-.9,2c-.2.4,0,.6.4.6s.3,0,.4-.3l.9-2.3c.4-.5,1.3-1,1.6-1s.2.2,0,.5l-1.4,2.6c-.1.3,0,.6.3.6.7,0,1.5-.6,1.8-1.4h-.2c-.2.3-.6.7-.9.7l1.2-2.4c.1-.3.2-.6.2-.8,0-.4-.2-.6-.6-.6ZM50.9,97.1v-.5c.1,0-1,0-1,0l.4-1.2h-.4l-.8,1.2h-.9v.5h.8l-1.2,3.3c-.1.3,0,.6.3.6.7,0,1.8-.7,2.2-1.6h-.2c-.3.3-.9.8-1.4.9l1.1-3.1h1.1ZM25.1,96.4c-.5,0-.6.4-1.1,1.5v-.6c0-.4-.1-.8-.5-.8s-.9.7-1.2,1.4h.2c.2-.3.4-.5.6-.5s.3.3,0,1l-.9,2c-.2.4,0,.6.4.6s.3,0,.4-.3l.9-2.3c.3-.3.5-.6.8-.9h.9c.2-.5,0-1-.3-1ZM39.6,96.4c-.5,0-.6.4-1.1,1.5v-.6c0-.4-.1-.8-.5-.8s-.9.7-1.2,1.4h.2c.2-.3.4-.5.6-.5s.3.3,0,1l-.9,2c-.2.4,0,.6.4.6s.3,0,.4-.3l.9-2.3c.3-.3.5-.6.8-.9h.9c.2-.5,0-1-.3-1ZM22.6,94.7h-4.6v.3c.8.2.9.3.5,1.4l-1,2.7c-.4,1.1-.6,1.2-1.6,1.4v.3c0,0,3.2,0,3.2,0v-.3c-1-.2-1.2-.2-.7-1.4l.5-1.2h1.2c.6,0,.6.2.5.8h.3l.7-2h-.3c-.3.5-.5.8-1.1.8h-1.2l.6-1.8c.2-.6.3-.7,1.1-.7h.5c.8,0,.9.2.9,1h.3l.3-1.4ZM32.9,97.1v-.5c.1,0-1,0-1,0l.4-1.2h-.4l-.8,1.2h-.9v.5h.8l-1.2,3.3c-.1.3,0,.6.3.6.7,0,1.8-.7,2.2-1.6h-.2c-.3.3-.9.8-1.4.9l1.1-3.1h1.1ZM35.3,96.4c-1.1,0-2.3,1.8-2.3,3.4s.3,1.1.9,1.1,1.3-.6,1.8-1.6h-.3c-.4.4-.7.8-1.1.8s-.6-.2-.6-.8,0-.4,0-.6l2.3-.8c.5-1.1,0-1.5-.7-1.5ZM35.3,97.9l-1.4.3c.3-.7.7-1.2,1-1.2s.6.2.4.8ZM29.5,96.2h-.3s-.4.4-.4.4h0c-1.9,0-3.5,2.1-3.5,3.7s.3.7.7.7,1-.7,1.5-1.5v.3c0,.8.1,1.2.5,1.2s.9-.7,1.2-1.4h-.2c-.2.3-.4.5-.6.5s-.3-.3,0-1l1.2-2.8ZM27.5,99.1c-.4.5-1,1-1.3,1s-.3-.1-.3-.4c0-1,1.1-2.4,1.8-2.4s.3,0,.4,0l-.7,1.8ZM53.2,96.4c-1.1,0-2.3,1.8-2.3,3.4s.3,1.1.9,1.1,1.3-.6,1.8-1.6h-.3c-.4.4-.7.8-1.1.8s-.6-.2-.6-.8,0-.4,0-.6l2.3-.8c.5-1.1,0-1.5-.7-1.5ZM53.2,97.9l-1.4.3c.3-.7.7-1.2,1-1.2s.6.2.4.8ZM47.9,94.7c0-.3-.3-.6-.6-.6s-.6.2-.6.6.2.6.6.6.6-.2.6-.6ZM52.9,96h.3l1.6-1.5v-.2h-.9l-1,1.7ZM34,83.6l-1.5.2v.2l.3.2c.3.2.2.4,0,1l-1.8,4.8c-.1.3,0,.6.3.6.7,0,1.4-.6,1.7-1.4h-.2c-.2.3-.7.7-1,.7l2.3-6.1h0ZM35.6,86c-.7,0-1.5.6-1.8,1.4h.2c.2-.3.6-.7.9-.7l-1.3,3.3c-.1.3.1.5.3.5.6,0,1.4-.6,1.7-1.4h-.2c-.2.3-.6.7-.9.7l1.4-3.3c0-.3-.1-.5-.3-.5ZM42.8,87.5c.5-1.1,0-1.5-.7-1.5-1.1,0-2.3,1.8-2.3,3.4s.3,1.1.9,1.1,1.3-.6,1.8-1.6h-.3c-.4.4-.7.8-1.1.8s-.6-.2-.6-.8,0-.4,0-.6l2.3-.8ZM41.6,86.6c.3,0,.6.2.4.8l-1.4.3c.2-.7.7-1.2,1-1.2ZM26.8,86.2h-1.5c-.2-.1-.4-.2-.6-.2-1.2,0-1.9,1-1.9,1.8s.4,1,.9,1.1c-.5.2-.8.5-.8.9s0,.3.2.5c-1.3.4-1.7.8-1.7,1.4s.8.8,1.7.8c1.5,0,2.8-.8,2.8-1.5s-.5-.7-1.3-1c-.7-.2-1-.3-1-.5s.1-.4.4-.5c1.1,0,1.8-1,1.8-1.9s0-.3,0-.5h.9v-.5ZM24.2,90.7c.6.2.9.3.9.5,0,.4-.7.7-1.6.7s-1.2-.2-1.2-.6.4-.7,1-1c.2.1.5.2.9.3ZM24,88.6c-.3,0-.4-.2-.4-.5,0-.7.4-1.8,1-1.8s.4.2.4.5c0,.7-.4,1.8-1,1.8ZM20.4,83.9h.3l1.6-1.1v-.2h-1l-.9,1.3ZM36.7,84.2c0-.3-.3-.6-.6-.6s-.6.3-.6.6.2.6.6.6.6-.2.6-.6ZM21.8,88.9h-.4c-.6.6-1.3,1.1-2.3,1.1s-1.2,0-.8-1.3l.5-1.3h1.2c.6,0,.6.2.5.8h.3l.7-2h-.3c-.3.5-.5.8-1.1.8h-1.2l.6-1.7c.2-.6.3-.7,1.1-.7h.5c.8,0,.9.2.9,1h.3l.3-1.4h-4.6v.3c.8.2.9.3.5,1.4l-1,2.7c-.4,1.1-.6,1.2-1.6,1.4v.3c0,0,5.1,0,5.1,0l.9-1.5ZM30.2,89.1c-.2.3-.4.5-.6.5s-.3-.3,0-1l1.2-2.8h-.4s-.4.4-.4.4h0c-1.9,0-3.5,2.1-3.5,3.7s.3.7.7.7,1-.7,1.5-1.5v.3c0,.8.1,1.2.5,1.2s.9-.7,1.2-1.4h-.2ZM28.8,88.6c-.4.5-1,1-1.3,1s-.3-.1-.3-.4c0-1,1.1-2.4,1.8-2.4s.3,0,.4,0l-.7,1.8ZM36.8,90.5c.7,0,1.8-.7,2.2-1.6h-.2c-.3.3-.9.8-1.4.9l1.1-3.1h1.1v-.5c.1,0-1,0-1,0l.4-1.2h-.4l-.8,1.2h-.9v.5h.8l-1.2,3.3c-.1.3,0,.6.3.6ZM43.6,83.9h-.9l-1,1.7h.2l1.6-1.5v-.2ZM24.3,74.4c.3,0,.6-.2.6-.6s-.2-.6-.6-.6-.6.3-.6.6.2.6.6.6ZM32.8,77h.2c.2-.3.4-.5.6-.5s.3.3,0,1l-.9,2c-.2.4,0,.6.4.6s.3,0,.4-.3l.9-2.3c.3-.3.5-.6.8-.9h.9c.2-.5,0-1-.3-1s-.6.4-1.1,1.5v-.6c0-.4-.1-.8-.5-.8s-.9.7-1.2,1.4ZM28.7,76.5c0-.7-.3-.9-.7-.9s-1.1.6-1.7,1.4l1.4-3.7h0c0,0-1.5,0-1.5,0v.2l.3.2c.3.2.2.4,0,1l-1.5,3.9c-.1.3-.2.6-.2.7,0,.4.5.8,1,.8,1.1,0,3-2,3-3.6ZM26,79.4c-.2,0-.6-.2-.6-.4s0-.3.2-.6l.4-1c.4-.5,1-1,1.4-1s.4.1.4.4c0,.9-.9,2.6-1.8,2.6ZM23.9,78.6h-.2c-.2.3-.6.7-.9.7l1.4-3.3c0-.3-.1-.5-.3-.5-.7,0-1.5.6-1.8,1.4h.2c.2-.3.6-.7.9-.7l-1.3,3.3c-.1.3.1.5.3.5.6,0,1.4-.6,1.7-1.4ZM39.2,76.2v-.5c.1,0-1,0-1,0l.4-1.2h-.4l-.8,1.2h-.8v.5h.6l-1.2,3.3c-.1.3,0,.6.3.6.7,0,1.8-.7,2.2-1.6h-.2c-.3.3-.9.8-1.4.9l1.1-3.1h1.1ZM21.4,78.1h-.4c-.6.6-1.2,1.4-2.3,1.4s-.9-.1-.5-1.3l1-2.7c.4-1.1.6-1.2,1.6-1.4v-.3c0,0-3,0-3,0v.3c.8.2.9.3.5,1.4l-1,2.7c-.4,1.1-.6,1.2-1.6,1.4v.3c0,0,4.6,0,4.6,0l1-1.8ZM32.1,77.1c.5-1.1,0-1.5-.7-1.5-1.1,0-2.3,1.8-2.3,3.4s.3,1.1.9,1.1,1.3-.6,1.8-1.6h-.3c-.4.4-.7.8-1.1.8s-.6-.2-.6-.8,0-.4,0-.6l2.3-.8ZM30.9,76.2c.3,0,.6.2.4.8l-1.4.3c.3-.7.7-1.2,1-1.2ZM43,73.4h-.9l-1,1.7h.2l1.6-1.5v-.2ZM40.1,80.1c.6,0,1.3-.6,1.8-1.6h-.3c-.4.4-.7.8-1.1.8s-.6-.2-.6-.8,0-.4,0-.6l2.3-.8c.5-1.1,0-1.5-.7-1.5-1.1,0-2.3,1.8-2.3,3.4s.3,1.1.9,1.1ZM41.1,76.2c.3,0,.6.2.4.8l-1.4.3c.3-.7.7-1.2,1-1.2Z"/>
    <path class="st0" d="M32.9,28.4c.2-.2.3-.3.5-.5h0c.3-.3.6-.7,1-1,.1,0,.2-.2.3-.2,0,0,0,0,0-.1-.1,0-.2.2-.4.2,0,0,0,0,0,0,.1,0,.2-.2.3-.2h0s0,0,0,0c-.4,0-.7.2-.9.4,0,0-.1,0-.1,0-.4.1-.7.5-1.2.7h0c-.2,0-.3.1-.5.1-.3,0-.5,0-.7,0-.3,0-.7.1-1,.2,0,0,0,0,0,0-.2,0-.4.1-.5.2,0,0,0,0,0,0,0,0,0,0,0,0,0,0-.1.1-.2.2-.2,0-.3.2-.5.4,0,0,0,0,0,0-.2.1-.3.3-.5.4,0,0,0,0,0,0,0,0,0,0,0,0,0,0,0,0,0,0,0,0,0,0,0-.1,0,0,0,0,0-.1,0,0,0-.1.1-.2,0,0,0,0,0,0,0,0,0,0,0,0,.1-.1.3-.3.5-.4h0s0,0,0,0c0,0,0,0,0,0,0,0,0,0,0,0,0,0,0,0,0,0,0,0,0,0-.1,0,0,0-.1.2-.2.2,0,0,0,0,0,0,0,0,0,0,0,0,0,0,0,0,0,0,0,0,0,0,0,0,0,0,0,0,0,0,0,0,0,0,0,0,0,0,0,0,0,0,0,0,0,0,0,0,0,0,0,0,0,0,0,0,0,0,0,0,0,0,0,0,0,0,0,0,0,0,0,0,0,0,0,0,0,0,0,0,0,0,0,0,0,0,.1-.1.2-.2h0c.1,0,.2-.1.3-.2,0,0,0,0,0,0-.2,0-.3.1-.5.2,0,0,0,0,0,0,0,0,0,0,0,0,0,0,0,0,0,0,0,0,.1,0,.2-.1,0,0,0,0,0,0,.9-.7,2.2-.5,3.2-.9l.3-.2c.1,0,.3-.2.4-.3.2-.2.4-.4.5-.7,0,0,0,0,0,0-.4.4-.8.7-1.3.9-.6.3-1.3.3-1.9.3,0,0,0,0,.1,0,0,0,0-.1.1-.2h0s0,0,0,0c0,0,.1,0,.1,0,0-.1-.3,0-.4,0,0,0,0-.1,0-.2h.1c0,0,0-.1,0-.1.4-.3.8-.5,1.2-.7,0,0-.1,0-.2,0,0,0,0,0,0,0,.3,0,.6-.3.9-.4-.1,0-.2,0-.3,0,0,0,0,0,.2,0h0c0-.1,0-.1,0-.1,0,0,0,0,0,0,0,0,.1,0,.2,0,0,0,0,0,0,0,0-.1.2-.1.4-.2,0,0-.1,0-.1,0s0,0,0,0h0c0,0,0,0,0-.1.2-.2.2-.5.3-.7,0,0,0,0,0,0-.3.3-.7.4-1.2.5h-.1c-.1,0-.3,0-.5,0-.1,0-.2-.1-.3-.2-.2-.1-.5-.3-.7-.3-.7-.2-1.5-.3-2.2-.3.3-.2.7-.2,1-.3.5-.1.9-.3,1.5-.3,0,0-.2,0-.3,0-.4,0-.8,0-1.2.2-.3,0-.5.2-.8.2-.2,0-.3.2-.5.2h0c.3-.4.6-.8,1.1-.8.5,0,1,0,1.5,0,.4,0,.7.1,1.1.2.1,0,.2.2.3.3.2,0,.3,0,.5.1,0,0,0-.1,0-.2.1-.1.3,0,.4,0,.2-.1-.2-.4-.3-.6,0,0,0,0,0,0,.2.2.4.4.7.6.1,0,.5.1.4,0-.1-.3-.4-.6-.7-.9h0c0-.1,0-.1,0-.2h0c-.1-.2,0-.3-.1-.4,0-.1,0-.3,0-.5,0-.2,0-.3-.1-.5,0-.5-.2-.9-.3-1.4,0-.5.3-1,.6-1.5.2-.3.4-.7.8-.9,0-.3.3-.6.5-.9.2-.3.6-.4.9-.6.4-.2.8-.3.8-.3H15.7v15.1h13.9c.5-.4,1.1-.6,1.8-1,.4-.2,1.2-.6,1.5-.8M28.5,26.4c0,0-.2,0-.1,0,0-.1.2-.1.3-.2,0,0,.1,0,.2,0,0,0,.1,0,.2.1-.2.2-.4,0-.6.2M24.1,25.8s0,0,0,0c.4-.5.7-.9.9-1.5.4-.2.7-.5,1-.8.5-.5,1-1,1.6-1.3.2,0,.5,0,.7,0,0,.1-.2,0-.3.2,0,0,0,0,0,0,0,0,0,0,0,0-.3.3-.7.5-.9.8-.2.3-.3.7-.7.7-.1,0,0,0,0,0-.9.5-1.5,1.2-2.2,2M26.5,23.9c0,0,0,0,0,.1,0,0,0,0-.1.1,0,0,0,0,0,0,0-.1.1-.2.2-.3,0,0,0,0,0,0M27.8,28.2s0,0,0,0c0,0,0,0,0,0,0,0-.1.1-.2.2,0,0,0,0,0,0,0,0,0,0-.1,0,0,0-.2,0-.1,0,0,0,.1-.1.2-.2,0,0,0,0,.1-.1,0,0,0,0,0,0,0,0,.2,0,.2,0M27.3,27.9s0,0,0,0c-.1,0-.2.2-.3.2-.1,0-.2.1-.4.2,0,0,0,0,0,0,0,0,0,0,0,0-.1,0-.2.1-.3.2,0,0,0,0,0,0s0,0,0,0c0,0,0,0,0,0,0,0,0,0,0,0,0,0,0,0,0,0,0,0,0,0,0,0,0,0,0,0,0,0,0,0,0,0,0,0,0,0,0,0,0,0h0s0,0,0,0c0,0,0,0,0,0,0,0,0,0,0,0s0,0,0,0c0,0,0,0-.1,0,0,0-.1.1-.2.2,0,0,0,0,0,0,0,0,0,0,0,0,0,0,0,0,0,0s0,0,0,0h0s0,0,0,0c0,0,0,0,0,0,0,0,0,0,0,0,0,0,0,0,0,0,0,0,0,0,0,0,0,0,0,0,0,0,0,0,0,0,0,0,0,0,0,0,0,0,0,0,0,0,0-.1,0,0,0,0,0,0,0,0,0,0,0,0,0,0,0,0,0,0,0,0,0,0,0,0,0,0,0,0,0-.1,0,0,0,0,0,0,0,0,0,0,0,0,0,0,0,0,0,0,0,0,0,0,0,0,0,0,0,0,0,0s0,0,0,0c0,0,0,0,0,0,0,0,0,0,0,0,0,0,0,0,0,0,0,0,0,0,0,0,0,0,0,0,0,0h0s0,0,0,0c0,0,0,0,0,0,0,0,0,0,0,0,0,0,0-.1.1-.2,0,0,0,0,0,0,0,0,0,0-.1,0,0,0,0,0,0,0,0,0,0,0,0,0,0,0,0,0,0,0,0,0,0-.1.1-.1,0,0,0,0,0,0,0,0,0,0,0,0,0,0,0,0,0,0h0c.3-.3.7-.3,1.1-.4.1,0,.3,0,.5,0,0,0,.2,0,.3,0-.3.1-.5.3-.7.4M27.9,25.9s0,0,.1,0h-.2s0,0,0,0c-.1,0-.3,0-.5.1-.2,0-.4.2-.6.3-.3.1-.6.4-.9.5,0,0,0,0,0,0,0,0,.1-.1.2-.2,0,0,0,0,0,0,.2-.3.5-.5.8-.7h0c0-.2.2-.3.3-.4,0,0,.1-.2.3-.3,0,0,0,0,0,0-.1,0-.2,0-.3,0,0,0,.1,0,.2-.1,0,0,0,0,0,0,0,0,0-.1.1-.1.1,0,.3,0,.3-.1-.2,0-.4,0-.6,0,.1-.4.4-.7.7-.9,0,0,0,0,0,0,0,.1,0,.3-.2.3.2,0,.5,0,.7.2,0,0,0,0-.1,0,.1,0,.3,0,.5.1,0,0-.2,0-.3,0,.9.3,1.8.5,2.6,1-.6.3-1.3.5-2,.6,0,0-.1,0-.2,0,0,0,0,0,0,0-.1,0-.2,0-.3,0-.1,0-.3,0-.4,0"/>
    <path class="st4" d="M57.3,15.1h-16.3s0,0,.2,0c.1,0,.3.2.4.2.2.1.4.2.5.5,0,0,.1.3,0,.4,0,.1,0,.4-.2.4-.2,0-.4,0-.6,0-.1,0-.2,0-.3,0,.4.2.8.4,1.1.8,0,0,.1,0,.3,0s0,0,0,0c0,0-.1,0,0,.2h0c.1,0,.1-.3.3-.3.1,0,.2.3.1.4-.1.1-.2.2-.3.3,0,0,0,.1,0,.2,0,.1.1.2.1.3,0,.2.1.4.2.6.1.4.2.9.2,1.3,0,.2-.1.4,0,.7,0,.2.2.4.3.6.1.2.2.3.3.5.2.3.5.6.3.9,0,.2-.4.2-.6.3-.2.1,0,.4,0,.5.1.3-.2.4-.4.5,0,0,.2,0,.2.1,0,.1.2.2,0,.4-.1.2-.5.3-.3.5.1.2,0,.4,0,.6,0,.3-.3.4-.5.4-.2,0-.4,0-.5,0,0,0-.1,0-.2,0-.5,0-1-.2-1.5-.2-.1,0-.3,0-.4.1-.1,0-.2.2-.3.3,0,0,0,0,0,0,0,0,0,0,0,0,0,0,0,0,0,0,0,0,0,0,0,0,0,.1-.2.2-.2.3,0,0,0,0,0,0,0,0,0,0,0,0,0,.2-.2.4-.2.5-.2.7-.1,1.2,0,1.4,0,0,.9.3,1.6.6.3.1.5.2.7.3h16v-15.1Z"/>
    <path class="st1" d="M42,20.6c.1,0,.3,0,.3,0,0,.2-.4.3-.6.5h0c0,0,0,.2-.1.2,0,0-.2,0-.3,0,.1.1.3.2.4.2,0,0,0,0,0,.1,0,0,0,0,0,0,0,0,0,0,0,0h0c0,.2-.2.2-.3.2.2,0,.5,0,.7,0,.2,0,0-.3.1-.5,0,0,0,0,0,0,0,0,.1-.1.2-.2,0,0,.1,0,.2,0,0,0-.1,0,0-.1.2-.1.3-.3.3-.5,0,0-.3,0-.4-.1-.1,0-.3,0-.5,0-.1,0-.3,0-.4.1-.2,0-.4.2-.5.3.2,0,.4-.1.6-.2.2,0,.3,0,.5,0"/>
  </g>
  <g>
    <g>
      <path class="st5" d="M139.7,90.6h1.8v-3.3h1.6c1.6,0,1.6-1.4,1.6-1.6h-3.2v-2h3.4v-1.6h-5.3v8.5Z"/>
      <path class="st5" d="M155.4,82.1l-3.2,8.4c-.4-.6-2.2-3.3-2.2-3.4.7-.2,1.1-.5,1.5-.9.3-.4.5-.9.5-1.6,0-.3,0-.7-.2-1-.1-.3-.3-.6-.6-.8-.3-.2-.6-.4-1.1-.6-.4-.1-1-.2-1.7-.2h-2.9v8.5h1.8v-4.1h0c0,.1,2,3.1,2,3.2.2.2.3.4.4.5.1.1.3.2.4.3.2,0,.3,0,.5.1.2,0,.4,0,.6,0h2.5l.7-1.7h1.4c.2,0,.4,0,.6,0,.2,0,.3-.1.4-.3.1-.1.2-.2.3-.4,0-.1.1-.3.2-.4.1.3.8,2,.8,2.1,0,.2.1.3.2.4,0,.1.2.2.3.3s.3.1.4.1c.2,0,.6,0,.8,0h.5l-3.5-8.5h-1.8ZM149.6,85.8c-.2.1-.4.2-.7.3-.3,0-.7,0-1.2,0h-.2v-2.7h.8c.4,0,.6,0,.9,0,.2,0,.4.2.6.3.1.1.2.3.3.4,0,.2,0,.3,0,.5s0,.4-.1.5c0,.2-.2.3-.4.4ZM155.3,87.3l1.1-2.9h0l1.1,2.9h-2.2Z"/>
      <path class="st5" d="M168.1,82.1h-.8s0,5.2,0,5.3c0,.1,0,.2,0,.3h0c-.1-.2-.2-.4-.4-.5-.1-.2-3.5-4.5-3.5-4.5-.2-.2-.4-.4-.6-.5-.2,0-.5-.1-.7-.1h-1v8.5h1.8s0-5.2,0-5.3c0-.1,0-.2,0-.3,0,0,0-.2,0-.2h0c.1.2.3.4.4.5.1.2.3.4.4.6l3.7,4.7h1.7v-7.5c0-.4,0-.6-.2-.8-.2-.1-.4-.2-.7-.2Z"/>
      <path class="st5" d="M175.5,89c-.3.1-.7.2-1.2.2s-.8,0-1.1-.2c-.3-.2-.6-.4-.9-.6-.2-.3-.4-.6-.6-.9-.1-.4-.2-.7-.2-1.1,0-.9.2-1.6.7-2,.5-.5,1.2-.7,2.1-.7s.4,0,.6,0c.2,0,.4,0,.6.2.2,0,.4.1.5.2.2,0,.3.2.4.3,0,0,0,0,0-.1,0,0,0-.1,0-.2,0,0,0-.1,0-.2,0,0,0-.1,0-.1,0-.2,0-.4,0-.5,0-.1,0-.3-.1-.4,0-.1-.2-.2-.4-.3-.2,0-.3-.2-.5-.2-.2,0-.4-.1-.6-.1-.2,0-.5,0-.7,0-.8,0-1.5.1-2,.4-.6.2-1.1.6-1.4,1s-.7.9-.9,1.4c-.2.5-.3,1.1-.3,1.7s0,1.2.3,1.7c.2.5.5,1,.8,1.4.4.4.8.7,1.4.9.5.2,1.2.3,1.9.3,1.2,0,2.1-.3,2.9-1l-.5-1.2c-.3.3-.6.4-.9.5Z"/>
      <path class="st5" d="M179.2,89v-1.9h1.6c.2,0,.5,0,.7-.1.2,0,.4-.2.5-.3.1-.1.3-.3.3-.5,0-.2.1-.4.1-.7h-3.2v-1.8h3.4v-1.6h-5.3v8.5h4c.3,0,.5,0,.7-.1.2,0,.4-.2.5-.4.1-.2.2-.3.3-.5,0-.2,0-.4,0-.6h-3.8Z"/>
    </g>
    <g>
      <rect x="237.4" y="29.4" width="8.5" height="5.1"/>
      <rect x="139.7" y="29.4" width="8.5" height="5.1"/>
      <path d="M237.4,68.5c0,4.7,3.8,8.5,8.5,8.5v-39.1h-8.5v30.6Z"/>
      <path d="M139.7,68.5c0,4.7,3.8,8.5,8.5,8.5v-39.1h-8.5v30.6Z"/>
      <path d="M217.1,37.9h-20.7c0,4.5,3.6,8.2,8,8.5,0,0,0,0,0,0h11.9c3.5,0,6.4,2.9,6.4,6.4v6.2c0,3.5-2.9,6.4-6.4,6.4h-12.3c-3.8,0-7.6-3-7.6-6.8v-6.3s.4-7.1-2.4-9.9c-5-5-12.2-4.6-12.9-4.6-11.5,0-15.6,4.3-17.6,5.8v-5.6h-8.5v39.1h8.5v-22.7c0-1.7.4-2.6,1.5-3.8,5.9-6.5,19.3-5.8,21.9-1.8,1.2,1.8,1,5.6,1,8.5v24.9c0,4.7,3.8,8.5,8.5,8.5v-21c2,2.2,5.5,4.2,8.5,4.2h12.2c7.6,0,13.7-6.1,13.7-13.7v-8.5c0-7.6-6.1-13.7-13.7-13.7Z"/>
    </g>
  </g>
</svg>