<svg width="201" height="28" viewBox="0 0 201 28" fill="none" xmlns="http://www.w3.org/2000/svg">
<path fill-rule="evenodd" clip-rule="evenodd" d="M18.1003 13.8154L25.9589 0.870117H16.2568L9.35856 11.5508V0.870117H0V26.7613H9.35856V16.0799L16.2568 26.7613H25.9589L18.1003 13.8154ZM54.2771 19.4817V0.870117H45.4281V26.7613H63.8157V19.4817H54.2771ZM191.869 0.870117H200.1V27.1033C192.008 27.8823 188.877 27.8397 188.877 27.8397C179.992 27.8397 175.223 24.2756 175.223 15.6485V0.870117H183.95V15.5386C183.95 18.7735 185.599 20.149 187.909 20.149C187.909 20.149 189.65 20.2278 191.869 19.9128V0.870117ZM165.488 14.3555C165.488 17.6333 162.824 20.2885 159.54 20.2885C156.253 20.2885 153.59 17.6333 153.59 14.3555C153.59 11.0784 156.253 8.42172 159.54 8.42172C162.824 8.42172 165.488 11.0784 165.488 14.3555ZM160.117 0.870117C168.068 0.870117 174.141 6.78287 174.141 14.2815V14.3555C174.141 21.8548 167.995 27.8401 160.044 27.8401C152.092 27.8401 146.019 21.9295 146.019 14.4288V14.3555C146.019 6.85476 152.166 0.870117 160.117 0.870117ZM121.142 0.870117V8.14978H128.73V26.7613H137.35V8.14978H144.937V0.870117H121.142ZM110.747 19.9128V0.870117H118.978V27.104C110.886 27.8823 107.755 27.8397 107.755 27.8397C98.8695 27.8397 94.1011 24.2756 94.1011 15.6485V0.870117H102.828V15.5386C102.828 18.7742 104.477 20.149 106.788 20.149C106.788 20.149 108.529 20.2277 110.747 19.9128ZM84.3665 14.3555C84.3665 17.6333 81.7029 20.2885 78.4179 20.2885C75.1322 20.2885 72.4687 17.6333 72.4687 14.3555C72.4687 11.0784 75.1322 8.42172 78.4179 8.42172C81.7029 8.42172 84.3665 11.0784 84.3665 14.3555ZM77.9136 0.870117C85.865 0.870117 91.9378 6.78287 91.9378 14.2815V14.3555C91.9378 21.8548 85.7912 27.8401 77.8399 27.8401C69.8885 27.8401 63.8157 21.9295 63.8157 14.4288V14.3555C63.8157 6.85476 69.9623 0.870117 77.9136 0.870117ZM29.4167 0.870117L21.6324 13.8154L29.4167 26.7613H43.2649V0.870117H29.4167Z" fill="black"/>
<path d="M35.6695 13.0501C33.2675 13.0501 31.3198 11.1024 31.3198 8.69974C31.3198 6.2971 33.2675 4.3501 35.6695 4.3501C38.0721 4.3501 40.0198 6.2971 40.0198 8.69974C40.0198 11.1024 38.0721 13.0501 35.6695 13.0501Z" fill="#FFC800"/>
<path d="M31.3198 23.49H39.1498V14.79H31.3198V23.49Z" fill="white"/>
</svg>
