<?xml version="1.0" encoding="UTF-8"?>
<svg id="Calque_2" data-name="Calque 2" xmlns="http://www.w3.org/2000/svg" viewBox="0 0 199 55.14">
  <defs>
    <style>
      .cls-1 {
        fill: #1ecad3;
      }

      .cls-2 {
        fill: #90b3e6;
      }

      .cls-3 {
        fill: #0071ce;
      }

      .cls-4 {
        fill: #d0ddf4;
      }

      .cls-5 {
        fill: #1a428a;
      }
    </style>
  </defs>
  <g>
    <path class="cls-3" d="M3.71,45.65l-2.85,7.4h.99l.78-2.1h3.14l.78,2.1h.99l-2.85-7.4h-.97ZM2.92,50.16l1.24-3.34h.06l1.24,3.34h-2.55Z"/>
    <path class="cls-3" d="M12.33,50.78c0,.35-.08.63-.24.86-.16.22-.35.39-.58.5s-.46.16-.68.16c-.37,0-.68-.12-.92-.36-.24-.24-.36-.56-.36-.97v-3.47h-.9v3.53c0,.47.08.86.24,1.17.16.31.38.54.67.69s.61.23.97.23c.44,0,.8-.1,1.09-.29.29-.2.5-.44.64-.72h.06v.94h.9v-5.55h-.9v3.28Z"/>
    <path class="cls-3" d="M21.03,50l-.87-.2c-.34-.08-.6-.18-.76-.31-.16-.12-.24-.29-.24-.5,0-.24.12-.44.35-.59.24-.16.53-.23.89-.23.26,0,.47.04.64.12s.3.18.4.3.17.25.22.37l.8-.22c-.14-.4-.37-.71-.7-.95-.33-.24-.78-.36-1.36-.36-.41,0-.78.07-1.1.21-.32.14-.58.33-.76.57-.19.24-.28.52-.28.83,0,.38.12.7.37.96.25.25.64.44,1.17.56l.97.22c.29.07.51.16.65.29.14.13.21.29.21.49,0,.24-.12.44-.37.61-.25.17-.58.25-1,.25-.37,0-.66-.07-.89-.22-.23-.15-.38-.37-.46-.67l-.85.2c.1.47.35.83.74,1.08.39.25.88.37,1.48.37.45,0,.85-.07,1.19-.22.34-.14.61-.34.8-.59.19-.25.29-.54.29-.85,0-.39-.13-.71-.38-.95-.26-.25-.64-.43-1.17-.55Z"/>
    <path class="cls-3" d="M28.14,48.04c-.24-.22-.51-.37-.81-.47-.3-.1-.6-.14-.9-.14-.53,0-.99.12-1.38.37-.39.24-.7.58-.92,1.02-.22.43-.33.94-.33,1.51s.11,1.07.33,1.49c.22.43.53.76.94,1,.41.24.89.36,1.45.36.39,0,.75-.06,1.07-.18.32-.12.58-.28.8-.49.21-.21.37-.46.46-.74l-.87-.23c-.08.19-.18.35-.32.48-.14.13-.3.23-.5.29-.19.06-.4.1-.64.1-.36,0-.68-.08-.95-.23-.27-.15-.49-.37-.64-.66-.14-.26-.21-.58-.22-.95h4.23v-.36c0-.52-.07-.95-.22-1.31-.14-.35-.34-.64-.58-.85ZM24.71,49.83c.02-.26.08-.5.2-.73.14-.27.34-.48.6-.65.26-.17.57-.25.92-.25.32,0,.61.07.84.21.24.14.42.34.55.58s.2.53.2.84h-3.32Z"/>
    <path class="cls-3" d="M32.94,47.42c-.35,0-.66.09-.94.26-.28.17-.47.39-.58.67h-.06v-.84h-.87v5.55h.9v-3.51c0-.25.06-.47.19-.67.13-.2.3-.35.52-.46.22-.11.47-.17.76-.17.12,0,.23,0,.34.02s.18.03.21.03v-.87c-.05,0-.13,0-.22-.01-.1,0-.18,0-.25,0Z"/>
    <polygon class="cls-3" points="37.09 51.93 37.03 51.93 35.43 47.5 34.45 47.5 36.61 53.05 37.52 53.05 39.68 47.5 38.7 47.5 37.09 51.93"/>
    <rect class="cls-3" x="41" y="47.5" width=".9" height="5.55"/>
    <path class="cls-3" d="M41.45,45.42c-.17,0-.32.06-.45.17-.13.11-.19.25-.19.41s.06.3.19.41.28.17.45.17.32-.06.45-.17.19-.25.19-.41-.06-.3-.19-.41c-.13-.11-.28-.17-.45-.17Z"/>
    <path class="cls-3" d="M45.15,48.46c.26-.17.57-.26.92-.26.39,0,.71.1.94.29.23.2.39.42.45.67h.9c-.05-.35-.18-.65-.39-.91-.21-.26-.48-.46-.81-.61s-.7-.22-1.11-.22c-.53,0-.99.12-1.38.37-.39.24-.7.58-.92,1.02-.22.43-.33.93-.33,1.49s.11,1.05.32,1.48c.21.43.52.77.91,1.02s.87.37,1.41.37c.43,0,.81-.08,1.13-.23.32-.15.59-.36.79-.62.2-.26.32-.56.37-.88h-.9c-.06.2-.15.38-.28.52s-.29.26-.48.33c-.19.08-.4.12-.63.12-.35,0-.66-.09-.92-.26-.26-.18-.46-.42-.61-.74-.14-.32-.21-.69-.21-1.12s.07-.78.22-1.1c.15-.31.35-.55.61-.73Z"/>
    <path class="cls-3" d="M53.87,48.04c-.24-.22-.51-.37-.81-.47-.3-.1-.6-.14-.9-.14-.53,0-.99.12-1.38.37-.39.24-.7.58-.92,1.02-.22.43-.33.94-.33,1.51s.11,1.07.33,1.49c.22.43.53.76.94,1,.41.24.89.36,1.45.36.39,0,.75-.06,1.07-.18.32-.12.58-.28.8-.49.21-.21.37-.46.46-.74l-.87-.23c-.08.19-.18.35-.32.48-.14.13-.3.23-.5.29-.19.06-.4.1-.64.1-.36,0-.68-.08-.95-.23-.27-.15-.49-.37-.64-.66-.14-.26-.21-.58-.22-.95h4.23v-.36c0-.52-.07-.95-.22-1.31-.14-.35-.34-.64-.58-.85ZM50.44,49.83c.02-.26.08-.5.2-.73.14-.27.34-.48.6-.65.26-.17.57-.25.92-.25.32,0,.61.07.84.21.24.14.42.34.55.58s.2.53.2.84h-3.32Z"/>
    <path class="cls-3" d="M63.49,48.38h-.08c-.07-.1-.16-.22-.28-.37-.12-.15-.29-.29-.51-.4-.22-.12-.52-.18-.9-.18-.49,0-.92.12-1.3.35s-.67.57-.88.99-.31.93-.31,1.52.1,1.1.31,1.53.5.76.87,1c.37.23.8.35,1.29.35.37,0,.67-.06.9-.18.23-.12.4-.26.52-.41.12-.15.21-.28.28-.38h.11v.85h.87v-7.4h-.9v2.73ZM63.31,51.39c-.13.32-.32.57-.57.75-.25.18-.55.27-.91.27s-.69-.09-.94-.28c-.25-.19-.44-.44-.57-.77-.13-.32-.19-.68-.19-1.08s.06-.74.19-1.06c.13-.31.31-.56.57-.75.25-.18.57-.28.95-.28s.67.09.92.26c.25.17.44.42.56.73.13.31.19.68.19,1.09s-.06.79-.19,1.11Z"/>
    <path class="cls-3" d="M70.34,48.04c-.24-.22-.51-.37-.81-.47-.3-.1-.6-.14-.9-.14-.53,0-.99.12-1.38.37-.39.24-.7.58-.92,1.02-.22.43-.33.94-.33,1.51s.11,1.07.33,1.49c.22.43.53.76.94,1,.41.24.89.36,1.45.36.39,0,.75-.06,1.07-.18.32-.12.58-.28.8-.49.21-.21.37-.46.46-.74l-.87-.23c-.08.19-.18.35-.32.48-.14.13-.3.23-.5.29-.19.06-.4.1-.64.1-.36,0-.68-.08-.95-.23-.27-.15-.49-.37-.64-.66-.14-.26-.21-.58-.22-.95h4.23v-.36c0-.52-.07-.95-.22-1.31-.14-.35-.34-.64-.58-.85ZM66.91,49.83c.02-.26.08-.5.2-.73.14-.27.34-.48.6-.65.26-.17.57-.25.92-.25.32,0,.61.07.84.21.24.14.42.34.55.58s.2.53.2.84h-3.32Z"/>
    <path class="cls-3" d="M79.65,47.66c-.3-.15-.64-.23-1.04-.23-.44,0-.8.09-1.08.26-.28.17-.49.4-.62.68h-.08v-.87h-.87v5.55h.9v-3.34c0-.32.06-.6.19-.82.13-.23.31-.4.53-.52.22-.12.48-.18.76-.18.41,0,.74.12.98.37.24.24.36.58.36,1.02v3.47h.9v-3.53c0-.47-.08-.86-.25-1.17-.16-.31-.39-.54-.69-.69Z"/>
    <path class="cls-3" d="M86.16,47.79c-.4-.24-.86-.36-1.38-.36s-.99.12-1.38.36c-.4.24-.7.57-.93,1-.22.43-.33.94-.33,1.51s.11,1.07.33,1.5c.22.43.53.76.93,1,.4.24.86.36,1.38.36s.99-.12,1.38-.36.7-.57.93-1,.33-.93.33-1.5-.11-1.08-.33-1.51-.53-.77-.93-1ZM86.33,51.34c-.12.32-.31.57-.57.77-.26.2-.59.29-.99.29s-.73-.1-.99-.29c-.26-.2-.45-.45-.57-.77-.12-.32-.19-.66-.19-1.03s.06-.72.19-1.04c.12-.32.32-.58.57-.78.26-.2.59-.3.99-.3s.73.1.99.3c.26.2.45.46.57.78.12.32.19.67.19,1.04s-.06.72-.19,1.03Z"/>
    <path class="cls-3" d="M91.08,52.29c-.06.01-.14.02-.24.02-.13,0-.26-.02-.37-.06-.12-.04-.21-.12-.29-.24-.07-.12-.11-.3-.11-.54v-3.24h1.24v-.72h-1.24v-1.33h-.9v1.33h-.88v.72h.88v3.47c0,.32.08.59.24.8s.36.37.6.47c.24.1.49.16.74.16.17,0,.3-.01.41-.03.11-.02.19-.05.25-.07l-.18-.77s-.09.02-.15.03Z"/>
    <path class="cls-3" d="M95.21,47.42c-.35,0-.66.09-.94.26-.28.17-.47.39-.58.67h-.06v-.84h-.87v5.55h.9v-3.51c0-.25.06-.47.19-.67.13-.2.3-.35.52-.46.22-.11.47-.17.76-.17.12,0,.23,0,.34.02s.18.03.21.03v-.87c-.05,0-.13,0-.22-.01-.1,0-.18,0-.25,0Z"/>
    <path class="cls-3" d="M100.87,48.04c-.24-.22-.51-.37-.81-.47-.3-.1-.6-.14-.9-.14-.53,0-.99.12-1.38.37-.39.24-.7.58-.92,1.02-.22.43-.33.94-.33,1.51s.11,1.07.33,1.49c.22.43.53.76.94,1,.41.24.89.36,1.45.36.39,0,.75-.06,1.07-.18.32-.12.58-.28.8-.49.21-.21.37-.46.46-.74l-.87-.23c-.08.19-.18.35-.32.48-.14.13-.3.23-.5.29-.19.06-.4.1-.64.1-.36,0-.68-.08-.95-.23-.27-.15-.49-.37-.64-.66-.14-.26-.21-.58-.22-.95h4.23v-.36c0-.52-.07-.95-.22-1.31-.14-.35-.34-.64-.58-.85ZM97.44,49.83c.02-.26.08-.5.2-.73.14-.27.34-.48.6-.65.26-.17.57-.25.92-.25.32,0,.61.07.84.21.24.14.42.34.55.58s.2.53.2.84h-3.32Z"/>
    <path class="cls-3" d="M110.47,47.78c-.37-.23-.81-.35-1.3-.35-.38,0-.68.06-.9.18-.22.12-.39.25-.51.4s-.21.27-.28.37h-.11v-.88h-.87v7.63h.9v-2.93h.08c.07.1.16.23.28.38.12.15.29.29.52.41.22.12.52.18.9.18.49,0,.91-.12,1.29-.35.37-.24.66-.57.87-1s.31-.94.31-1.53-.1-1.09-.31-1.52-.5-.76-.88-.99ZM110.57,51.35c-.13.32-.32.58-.57.77-.25.19-.56.28-.94.28s-.66-.09-.91-.27-.44-.43-.57-.75c-.13-.32-.19-.69-.19-1.11s.06-.78.19-1.09c.13-.31.31-.56.56-.73.25-.17.55-.26.92-.26s.7.09.95.28c.25.18.44.43.57.75.13.31.19.67.19,1.06s-.06.75-.19,1.08Z"/>
    <path class="cls-3" d="M115.67,47.42c-.35,0-.66.09-.94.26-.28.17-.47.39-.58.67h-.06v-.84h-.87v5.55h.9v-3.51c0-.25.06-.47.19-.67.13-.2.3-.35.52-.46.22-.11.47-.17.76-.17.12,0,.23,0,.34.02.11.02.18.03.21.03v-.87c-.05,0-.13,0-.22-.01-.1,0-.18,0-.25,0Z"/>
    <path class="cls-3" d="M121.02,47.79c-.4-.24-.86-.36-1.38-.36s-.99.12-1.38.36-.7.57-.93,1c-.22.43-.33.94-.33,1.51s.11,1.07.33,1.5c.22.43.53.76.93,1s.86.36,1.38.36.99-.12,1.38-.36c.4-.24.7-.57.93-1,.22-.43.33-.93.33-1.5s-.11-1.08-.33-1.51c-.22-.43-.53-.77-.93-1ZM121.2,51.34c-.12.32-.32.57-.57.77-.26.2-.59.29-.99.29s-.73-.1-.99-.29c-.26-.2-.45-.45-.57-.77s-.19-.66-.19-1.03.06-.72.19-1.04c.12-.32.32-.58.57-.78.26-.2.59-.3.99-.3s.73.1.99.3c.26.2.45.46.57.78.12.32.19.67.19,1.04s-.06.72-.19,1.03Z"/>
    <path class="cls-3" d="M125.94,52.29c-.06.01-.14.02-.24.02-.13,0-.26-.02-.37-.06s-.21-.12-.29-.24-.11-.3-.11-.54v-3.24h1.24v-.72h-1.24v-1.33h-.9v1.33h-.88v.72h.88v3.47c0,.32.08.59.24.8s.36.37.6.47c.24.1.49.16.74.16.17,0,.31-.01.41-.03.11-.02.19-.05.25-.07l-.18-.77s-.09.02-.15.03Z"/>
    <path class="cls-3" d="M131.48,48.04c-.24-.22-.51-.37-.81-.47-.3-.1-.6-.14-.9-.14-.53,0-.99.12-1.38.37-.39.24-.7.58-.92,1.02-.22.43-.33.94-.33,1.51s.11,1.07.33,1.49c.22.43.53.76.94,1,.41.24.89.36,1.45.36.39,0,.75-.06,1.07-.18.32-.12.58-.28.8-.49.21-.21.37-.46.46-.74l-.87-.23c-.08.19-.18.35-.32.48-.14.13-.3.23-.5.29-.19.06-.4.1-.64.1-.36,0-.68-.08-.95-.23-.27-.15-.49-.37-.64-.66-.14-.26-.21-.58-.22-.95h4.23v-.36c0-.52-.07-.95-.22-1.31-.14-.35-.34-.64-.58-.85ZM128.05,49.83c.02-.26.08-.5.2-.73.14-.27.34-.48.6-.65.26-.17.57-.25.92-.25.32,0,.61.07.84.21.24.14.42.34.55.58.13.25.2.53.2.84h-3.32Z"/>
    <path class="cls-3" d="M135.28,48.46c.26-.17.57-.26.92-.26.39,0,.71.1.94.29.23.2.39.42.45.67h.9c-.05-.35-.18-.65-.39-.91-.21-.26-.48-.46-.81-.61-.33-.14-.7-.22-1.11-.22-.53,0-.99.12-1.38.37-.39.24-.7.58-.92,1.02-.22.43-.33.93-.33,1.49s.11,1.05.32,1.48c.21.43.52.77.91,1.02s.87.37,1.41.37c.43,0,.81-.08,1.13-.23s.59-.36.79-.62c.2-.26.32-.56.37-.88h-.9c-.06.2-.15.38-.28.52-.13.14-.29.26-.48.33-.19.08-.4.12-.63.12-.35,0-.66-.09-.92-.26-.26-.18-.46-.42-.61-.74s-.21-.69-.21-1.12.07-.78.22-1.1c.15-.31.35-.55.61-.73Z"/>
    <path class="cls-3" d="M142.27,52.29c-.06.01-.14.02-.24.02-.13,0-.26-.02-.37-.06s-.21-.12-.29-.24-.11-.3-.11-.54v-3.24h1.24v-.72h-1.24v-1.33h-.9v1.33h-.88v.72h.88v3.47c0,.32.08.59.24.8s.36.37.6.47c.24.1.49.16.74.16.17,0,.31-.01.41-.03.11-.02.19-.05.25-.07l-.18-.77s-.09.02-.15.03Z"/>
    <rect class="cls-3" x="143.95" y="47.5" width=".9" height="5.55"/>
    <path class="cls-3" d="M144.41,45.42c-.17,0-.32.06-.45.17-.13.11-.19.25-.19.41s.06.3.19.41.27.17.45.17.32-.06.45-.17c.13-.11.19-.25.19-.41s-.06-.3-.19-.41c-.13-.11-.27-.17-.45-.17Z"/>
    <path class="cls-3" d="M150.41,47.79c-.4-.24-.86-.36-1.38-.36s-.99.12-1.38.36-.7.57-.93,1c-.22.43-.33.94-.33,1.51s.11,1.07.33,1.5c.22.43.53.76.93,1s.86.36,1.38.36.99-.12,1.38-.36c.4-.24.7-.57.93-1,.22-.43.33-.93.33-1.5s-.11-1.08-.33-1.51c-.22-.43-.53-.77-.93-1ZM150.58,51.34c-.12.32-.32.57-.57.77-.26.2-.59.29-.99.29s-.73-.1-.99-.29c-.26-.2-.45-.45-.57-.77s-.19-.66-.19-1.03.06-.72.19-1.04c.12-.32.32-.58.57-.78.26-.2.59-.3.99-.3s.73.1.99.3c.26.2.45.46.57.78.12.32.19.67.19,1.04s-.06.72-.19,1.03Z"/>
    <path class="cls-3" d="M156.91,47.66c-.3-.15-.64-.23-1.04-.23-.44,0-.8.09-1.08.26s-.49.4-.62.68h-.08v-.87h-.87v5.55h.9v-3.34c0-.32.06-.6.19-.82.13-.23.31-.4.53-.52.22-.12.48-.18.76-.18.41,0,.74.12.98.37s.36.58.36,1.02v3.47h.9v-3.53c0-.47-.08-.86-.25-1.17-.16-.31-.39-.54-.69-.69Z"/>
    <path class="cls-3" d="M165.65,50l-.87-.2c-.34-.08-.6-.18-.76-.31-.16-.12-.24-.29-.24-.5,0-.24.12-.44.35-.59.24-.16.53-.23.89-.23.26,0,.47.04.64.12s.3.18.4.3c.1.12.17.25.22.37l.8-.22c-.14-.4-.37-.71-.7-.95-.33-.24-.78-.36-1.36-.36-.41,0-.78.07-1.1.21-.32.14-.58.33-.76.57-.19.24-.28.52-.28.83,0,.38.12.7.37.96.25.25.64.44,1.17.56l.97.22c.29.07.51.16.65.29.14.13.21.29.21.49,0,.24-.12.44-.37.61-.25.17-.58.25-1,.25-.37,0-.66-.07-.89-.22-.23-.15-.38-.37-.46-.67l-.85.2c.1.47.35.83.74,1.08s.88.37,1.48.37c.45,0,.85-.07,1.19-.22s.61-.34.8-.59.29-.54.29-.85c0-.39-.13-.71-.38-.95-.26-.25-.64-.43-1.16-.55Z"/>
    <path class="cls-3" d="M172.44,47.79c-.4-.24-.86-.36-1.38-.36s-.99.12-1.38.36-.7.57-.93,1c-.22.43-.33.94-.33,1.51s.11,1.07.33,1.5c.22.43.53.76.93,1s.86.36,1.38.36.99-.12,1.38-.36c.4-.24.7-.57.93-1,.22-.43.33-.93.33-1.5s-.11-1.08-.33-1.51c-.22-.43-.53-.77-.93-1ZM172.62,51.34c-.12.32-.32.57-.57.77-.26.2-.59.29-.99.29s-.73-.1-.99-.29c-.26-.2-.45-.45-.57-.77s-.19-.66-.19-1.03.06-.72.19-1.04c.12-.32.32-.58.57-.78.26-.2.59-.3.99-.3s.73.1.99.3c.26.2.45.46.57.78.12.32.19.67.19,1.04s-.06.72-.19,1.03Z"/>
    <path class="cls-3" d="M176.7,48.46c.26-.17.57-.26.92-.26.39,0,.71.1.94.29.23.2.39.42.45.67h.9c-.05-.35-.18-.65-.39-.91-.21-.26-.48-.46-.81-.61-.33-.14-.7-.22-1.11-.22-.53,0-.99.12-1.38.37-.39.24-.7.58-.92,1.02-.22.43-.33.93-.33,1.49s.11,1.05.32,1.48c.21.43.52.77.91,1.02s.87.37,1.41.37c.43,0,.81-.08,1.13-.23s.59-.36.79-.62c.2-.26.32-.56.37-.88h-.9c-.06.2-.15.38-.28.52-.13.14-.29.26-.48.33-.19.08-.4.12-.63.12-.35,0-.66-.09-.92-.26-.26-.18-.46-.42-.61-.74s-.21-.69-.21-1.12.07-.78.22-1.1c.15-.31.35-.55.61-.73Z"/>
    <path class="cls-3" d="M181.84,45.42c-.17,0-.32.06-.45.17-.13.11-.19.25-.19.41s.06.3.19.41.27.17.45.17.32-.06.45-.17c.13-.11.19-.25.19-.41s-.06-.3-.19-.41c-.13-.11-.27-.17-.45-.17Z"/>
    <rect class="cls-3" x="181.39" y="47.5" width=".9" height="5.55"/>
    <path class="cls-3" d="M187.65,47.75c-.23-.13-.47-.22-.71-.26-.24-.04-.46-.06-.65-.06-.29,0-.59.04-.89.11-.3.08-.58.21-.83.4-.25.19-.46.45-.61.79l.85.29c.1-.2.27-.39.51-.57.24-.18.58-.27,1.01-.27s.72.1.92.3.31.47.31.83v.03c0,.14-.05.23-.15.29-.1.06-.26.09-.49.12-.22.02-.51.06-.86.1-.27.03-.54.08-.81.14-.27.06-.51.14-.73.25-.22.11-.4.27-.53.47s-.2.46-.2.78c0,.36.09.67.27.92.18.25.42.45.72.58.3.13.64.2,1.01.2.34,0,.63-.05.86-.14.24-.1.42-.21.57-.35s.24-.27.3-.39h.05v.75h.9v-3.66c0-.44-.08-.79-.23-1.06-.15-.26-.34-.46-.57-.59ZM187.55,51.04c0,.23-.06.45-.19.66-.13.21-.31.38-.55.51-.24.13-.54.2-.9.2s-.65-.08-.88-.23-.35-.37-.35-.67c0-.22.06-.39.18-.51.12-.13.28-.22.49-.29.2-.06.42-.11.65-.14.1-.01.22-.03.38-.05s.32-.04.48-.07c.17-.03.31-.06.44-.09.13-.03.21-.07.25-.12v.78Z"/>
    <rect class="cls-3" x="190.28" y="45.65" width=".9" height="7.4"/>
    <path class="cls-3" d="M197.88,50.21c0-.52-.07-.95-.22-1.31-.14-.35-.34-.64-.58-.85-.24-.22-.51-.37-.81-.47-.3-.1-.6-.14-.9-.14-.53,0-.99.12-1.38.37-.39.24-.7.58-.92,1.02-.22.43-.33.94-.33,1.51s.11,1.07.33,1.49c.22.43.53.76.94,1,.41.24.89.36,1.45.36.39,0,.75-.06,1.07-.18.32-.12.58-.28.8-.49.21-.21.37-.46.46-.74l-.87-.23c-.08.19-.18.35-.32.48-.14.13-.3.23-.5.29-.19.06-.4.1-.64.1-.36,0-.68-.08-.95-.23-.27-.15-.49-.37-.64-.66-.14-.26-.21-.58-.22-.95h4.23v-.36ZM193.65,49.83c.02-.26.08-.5.2-.73.14-.27.34-.48.6-.65.26-.17.57-.25.92-.25.32,0,.61.07.84.21.24.14.42.34.55.58.13.25.2.53.2.84h-3.32Z"/>
  </g>
  <path class="cls-1" d="M0,9.3c0,5.12,4.15,9.27,9.27,9.27s9.27-4.15,9.27-9.27S14.38.04,9.27.04,0,4.18,0,9.3"/>
  <path class="cls-2" d="M18.46,18.57h18.39c0,10.23-8.24,18.53-18.39,18.53v-18.53Z"/>
  <path class="cls-3" d="M36.86.04v18.53h-18.39C18.46,8.33,26.7.04,36.86.04"/>
  <path class="cls-4" d="M18.46,18.57H.07c0,10.23,8.24,18.53,18.39,18.53v-18.53Z"/>
  <path class="cls-5" d="M63.02,37.1c-7.99,0-14.48-6.5-14.48-14.48V.04h4.97v22.58c0,5.25,4.27,9.52,9.51,9.52s9.52-4.27,9.52-9.52V.06h4.97v22.56c0,7.99-6.5,14.48-14.48,14.48"/>
  <path class="cls-5" d="M100.36,12.55v4.45h-.21c-1.05-.73-2.35-1.15-3.82-1.15-4.71,0-6.96,3.24-6.96,9.62v11.14h-4.45V12.13h3.77l.11,3.92h.1c1.46-2.93,4.03-4.45,7.74-4.45,1.62,0,2.88.42,3.71.94"/>
  <path class="cls-5" d="M121.54,13.49v4.71h-.21c-1.67-1.73-4.29-2.62-7.69-2.62-3.14,0-5.18,1.46-5.18,3.66,0,1.78,1.31,2.62,5.39,2.82,6.7.37,9.15,2.61,9.15,7.43s-3.71,7.64-9.68,7.64c-4.08,0-7.27-.89-9.31-2.56v-4.81h.21c1.99,2.25,5.02,3.4,8.94,3.4,3.35,0,5.44-1.41,5.44-3.66,0-1.99-1.36-2.93-5.75-3.19-6.43-.42-8.79-2.46-8.79-6.9s3.77-7.79,9.47-7.79c3.24,0,6.17.68,8,1.88"/>
  <path class="cls-5" d="M144.92,13.49v4.71h-.21c-1.67-1.73-4.29-2.62-7.69-2.62-3.14,0-5.18,1.46-5.18,3.66,0,1.78,1.31,2.62,5.39,2.82,6.69.37,9.15,2.61,9.15,7.43s-3.71,7.64-9.68,7.64c-4.08,0-7.27-.89-9.31-2.56v-4.81h.21c1.99,2.25,5.02,3.4,8.94,3.4,3.35,0,5.44-1.41,5.44-3.66,0-1.99-1.36-2.93-5.75-3.19-6.43-.42-8.79-2.46-8.79-6.9s3.77-7.79,9.47-7.79c3.24,0,6.17.68,8,1.88"/>
  <path class="cls-5" d="M172.17,24.37c0-5.18-3.5-8.79-8.47-8.79s-8.47,3.61-8.47,8.79,3.45,8.79,8.47,8.79,8.47-3.61,8.47-8.79M172.69,36.61l-.16-3.87h-.1c-1.83,2.72-5.18,4.39-9.47,4.39-7.11,0-12.24-5.34-12.24-12.76s5.13-12.76,12.24-12.76c4.29,0,7.64,1.67,9.47,4.45h.1l.16-3.92h3.77v24.48h-3.77Z"/>
  <path class="cls-5" d="M199,.89v4.18h-.21c-1.05-.68-2.56-1.1-3.98-1.1-2.77,0-4.34,1.67-4.34,4.81v3.87h7.85v3.87h-7.85v20.08h-4.5v-20.08h-4.5v-3.87h4.5v-3.98c0-5.54,2.93-8.68,8.21-8.68,2.04,0,3.77.37,4.81.89"/>
</svg>