<?xml version="1.0" encoding="UTF-8"?>
<svg id="Calque_1" data-name="Calque 1" xmlns="http://www.w3.org/2000/svg" xmlns:xlink="http://www.w3.org/1999/xlink" viewBox="0 0 215 65">
  <defs>
    <style>
      .cls-1 {
        fill: none;
      }

      .cls-2 {
        fill: #C43560;
      }

      .cls-3 {
        clip-path: url(#clippath);
      }
    </style>
    <clipPath id="clippath">
      <rect class="cls-1" x="-5.14" y="0" width="223.28" height="64.99"/>
    </clipPath>
  </defs>
  <g class="cls-3">
    <path class="cls-2" d="M145.17,30.92c-.07.61-.26,1.29-.54,2.02-.3.76-.67,1.55-1.09,2.33-.42.78-.85,1.48-1.28,2.09-.49.74-1.02,1.48-1.58,2.18-.54.69-1.08,1.31-1.6,1.84-.5.51-.96.89-1.36,1.13-.21.12-.33.16-.41.17-.03-.14-.05-.51.08-1.35.17-1.09.43-2.37.76-3.8.18-.76.39-1.54.61-2.32.16-.56.32-1.1.48-1.63.15.05.3.07.45.07.06,0,.11,0,.26-.03.33-.1.62-.34.87-.74.16-.3.42-.62.75-.94.37-.35.76-.68,1.17-.97.6-.42,1.17-.73,1.68-.91.27-.1.43-.12.52-.12.06,0,.09.01.09,0,.14.16.2.51.14.97M146.25,28.18c-.82-.55-1.7-.83-2.64-.83-.28,0-.56.02-.9.08-.59.15-1.13.35-1.61.58l1.12-2.65c.49-1.19.93-2.33,1.3-3.39.37-1.04.61-1.81.71-2.28.12-.55.08-1.08-.13-1.59-.2-.48-.46-.86-.77-1.13-.34-.3-.72-.43-1.15-.37-.45.05-.83.36-1.15.93-.1.23-.26.58-.46,1.07-.2.48-.43,1.06-.66,1.72-.25.67-.5,1.4-.77,2.16-.27.78-.54,1.57-.83,2.37l-1.89,5.61c-.47,1.37-.85,2.66-1.15,3.84-.29,1.16-.53,2.22-.72,3.16-.46,2.4-.54,4.05-.24,5.02.11.4.3.8.56,1.18.25.37.55.71.88.99.71.62,1.47.93,2.26.93.16,0,.32-.01.48-.04.49-.08,1.05-.31,1.68-.7.6-.37,1.21-.86,1.83-1.46.61-.59,1.23-1.25,1.84-1.98.63-.75,1.21-1.53,1.74-2.31.95-1.39,1.71-2.81,2.26-4.21.57-1.46.75-2.73.52-3.76-.3-1.21-1.01-2.2-2.11-2.94"/>
    <path class="cls-2" d="M49.8,24.94c.92-1.54,1.81-2.89,2.64-4.02.79-1.07,1.49-1.78,2.16-2.14.37-.3.44-.78.15-1.18-.19-.27-.5-.48-.99-.66-.34-.11-.72-.18-1.12-.21-.44-.04-.9.02-1.37.17-.73.23-1.49.87-2.34,1.95-.79,1.01-1.6,2.26-2.41,3.69-.97,1.65-1.79,3.18-2.72,4.98-.94,1.81-1.79,3.43-2.51,4.8-1.93,3.36-3.55,6.03-4.84,7.92-1.53,2.26-2.07,2.38-2.02,2.4-.26-.1-.46-.37-.61-.81-.19-.56-.31-1.26-.36-2.08-.05-.86-.04-1.83.02-2.87.07-1.07.17-2.18.32-3.31.14-1.1.3-2.25.46-3.43.17-1.14.34-2.2.52-3.16.19-1,.33-1.84.45-2.57.12-.77.18-1.32.19-1.7,0-.5-.19-.95-.58-1.33-.33-.31-.7-.56-1.1-.74-.51-.24-1.03-.36-1.52-.36h-.11c-.41.02-.71.13-.91.34-.13.13-.28.37-.24.8.06.31.05.92-.3,2.11-.31,1.01-.76,2.19-1.36,3.52-.6,1.32-1.35,2.78-2.24,4.32-.88,1.53-1.88,3.09-2.98,4.64-.92,1.32-1.81,2.54-2.65,3.64-.87,1.13-1.61,2.03-2.28,2.76-.69.75-1.27,1.32-1.75,1.72-.4.33-.59.4-.6.42-.04-.03-.2-.22-.27-1-.07-.85-.06-1.97.04-3.33.1-1.34.27-2.91.5-4.67.26-1.95.99-5.95,1.13-6.73.28-1.51.52-2.95.72-4.27.19-1.27.34-2.34.44-3.17.14-1.2.09-1.57,0-1.81-.16-.36-.39-.68-.71-.96-.29-.25-.61-.46-.92-.6-.58-.28-1.12-.36-1.61-.26-.43.1-.61.33-.7.52-.12.29-.05.61.15.88,0,0,.05.23-.05,1.17-.1.84-.24,1.92-.43,3.21-.18,1.27-.42,2.74-.72,4.38-.3,1.65-.79,4.4-1,5.73-.22,1.37-.4,2.63-.55,3.77-.15,1.18-.26,2.2-.33,3.03-.08.89-.08,1.58,0,1.99.04.69.3,1.41.75,2.16.45.73,1.02,1.36,1.69,1.87.52.39,1.11.69,1.75.88.35.11.73.16,1.11.16.35,0,.7-.04,1.06-.13.53-.15,1.1-.51,1.76-1.1.59-.53,1.23-1.2,1.9-1.99.66-.78,1.33-1.63,1.98-2.54.64-.89,1.29-1.76,1.94-2.6.54-.73,1.04-1.47,1.5-2.21.47-.75.9-1.43,1.27-2.03.04-.06.08-.13.12-.19-.02.61-.02,1.26,0,1.96.03,1.05.12,2.11.28,3.14.17,1.1.49,2,.96,2.65.65,1,1.5,1.78,2.52,2.33.62.35,1.25.58,1.88.68.19.03.37.05.55.05.49,0,.94-.12,1.33-.33.53-.26,1.11-.75,1.73-1.47.57-.66,1.21-1.48,1.9-2.45.68-.96,1.37-2.03,2.06-3.17.68-1.14,1.35-2.34,1.99-3.55.8-1.45,1.67-3.07,2.59-4.81,1.03-1.96,1.8-3.34,2.66-4.77"/>
    <path class="cls-2" d="M56.23,36.37c-.66.95-1.4,1.92-1.95,2.54-.35.39-.89.97-1.31,1.38-.57.57-1.1,1-1.57,1.27-.36.21-.55.24-.72.22-.07-.03-.27-.1-.24-.69.02-.6.16-1.36.4-2.24.19-.67.43-1.38.73-2.11.23-.55.48-1.11.75-1.66.45-1.03.93-1.76,1.37-2.35.26,1.42,1.17,2.74,2.54,3.64M58.54,31.81c-.13.51-.35,1.08-.69,1.79-1.12-.71-1.56-1.72-1.26-2.86.16-.59.64-1.23,1.33-1.23.06,0,.13,0,.19.03.16.05.32.25.45.58.17.43.16,1.01-.02,1.71M94.71,35.78c-.39.69-.79,1.35-1.19,1.97-.46.72-.94,1.39-1.43,2.02-.91,1.19-1.74,2.13-2.45,2.8-.64.6-.99.74-1.15.77-.02-.06-.04-.17-.05-.35-.02-.47.04-1.1.17-1.82.14-.77.36-1.62.66-2.54.3-.93.67-1.88,1.09-2.81.36-.83.77-1.63,1.21-2.38.43-.73.89-1.37,1.35-1.9.44-.5.89-.87,1.33-1.09.21-.11.43-.16.62-.16.14,0,.29.03.44.08.23.09.36.24.42.45.08.31.1.66.03,1.04-.07.41-.18.84-.34,1.26-.16.43-.31.79-.42,1.05-.38.76-.47,1.25-.32,1.61M109.53,37.17c.07-.24.15-.5.25-.78.27-.76.64-1.51,1.1-2.23.47-.74.97-1.43,1.47-2.03.75-.84,1.36-1.38,1.91-1.71.29-.17.45-.2.53-.2.23,0,.28.44.29.7.09,2.2-2.68,5.59-5.55,6.25M132.46,29.02c-.21-.2-.48-.36-.8-.47-.26-.11-.58-.2-.99-.27l-.98-.17c-.28-.05-.54-.09-.75-.14-.13-.03-.23-.09-.24-.12,0,0,0-.03.05-.11.16-.25.27-.46.42-.88.16-.4.08-.82-.22-1.18-.36-.42-.7-.73-1.15-1.02-.45-.3-.82-.47-1.19-.49-.52,0-.79.33-.87.64-.05.23-.2.7-.62,1.68-.34.8-.77,1.72-1.3,2.73l-2.22,4.22c-.18.31-.38.62-.61.97-.73,1.11-1.59,2.26-2.58,3.41-.56.67-1.18,1.32-1.84,1.93-.66.6-1.32,1.14-1.96,1.61-.62.45-1.26.8-1.89,1.06-.54.22-1.02.32-1.48.32h-.16c-.46-.03-.81-.23-1.12-.63-.27-.36-.47-.81-.59-1.34,4.15-1.21,8.53-4.86,8.73-9.49.05-1.23-.42-2.35-1.28-3-.53-.4-1.15-.67-1.84-.79-.68-.12-1.43-.1-2.23.08-1.29.31-2.55,1.04-3.73,2.17-1.17,1.13-2.15,2.85-2.92,5.11-.09.27-.16.52-.23.78l-.22.34c-.37.56-.76,1.12-1.15,1.64-.46.61-.92,1.19-1.36,1.73-.44.54-.86,1.01-1.25,1.39-.38.37-.73.65-1.03.83-.19.11-.33.15-.4.16-.11-.03-.45-.13-.54-1.04-.08-.79-.05-1.74.1-2.81.15-1.08.36-2.21.63-3.37.26-1.12.5-2.08.7-2.79.27-.61.54-1.3.82-2.08l.32-.87c.14-.38.29-.79.45-1.2l.63-1.67c.48-1.25.93-2.46,1.22-3.24.43-1.22.67-1.93.78-2.32.13-.52.1-1.03-.08-1.51-.16-.44-.38-.83-.66-1.17-.45-.51-.94-.81-1.45-.9-.08-.01-.15-.02-.22-.02-.27,0-.92.1-1.17,1.03l-.71,2.55c-.55,1.9-1.63,4.87-2.19,6.32-.33.89-.7,1.81-1.08,2.73-.1-.09-.2-.18-.31-.26-.39-.32-.83-.61-1.31-.87-.48-.26-.97-.45-1.46-.58-.39-.1-.75-.15-1.07-.15-.1,0-.19,0-.31.02-.68.11-1.34.39-1.95.84-.58.41-1.15.95-1.7,1.59-.48.57-.95,1.21-1.33,1.85-.1.09-.17.2-.22.32l-.04.08c-.24.41-.47.82-.69,1.22-.19.3-.4.63-.65.99-.72,1.07-1.55,2.17-2.45,3.28-.43.56-.89,1.1-1.36,1.6-.48.51-.93.93-1.33,1.27-.39.33-.75.58-1.07.74-.19.09-.33.11-.47.1-.35-.15-.42-.72-.41-1.17.02-.86.15-1.82.41-2.85.24-1,.52-1.96.85-2.86.39-1.1.62-1.65.75-1.91.27-.58.26-1.24-.02-1.91-.25-.6-.62-1.16-1.12-1.66-.4-.4-.83-.69-1.29-.88-.49-.2-.9-.27-1.44-.17-.77.18-1.64.68-2.57,1.48-.88.76-1.77,1.66-2.64,2.65-.61.68-1.19,1.4-1.74,2.14-.57.77-1.07,1.44-1.51,2.06-.04.06-.08.12-.12.17.17-.55.36-1.1.56-1.65.28-.82.55-1.58.81-2.24.27-.69.47-1.22.59-1.6.08-.27.1-.69-.27-1.2-.24-.33-.54-.6-.82-.76-.29-.22-.61-.35-1.03-.38-.4,0-.72.19-.87.49-.1.14-.18.3-.24.48l-.07.14c-1.3,3.03-3.71,4.76-6.63,4.76-.02,0-.04,0-.06,0,0,0,0-.02,0-.02.25-.71.44-1.54.54-2.34.08-.7.03-1.52-.12-2.12-.32-1.44-1.32-2.62-2.54-3.01-.83-.29-1.9-.29-2.68,0-.77.29-1.37.69-1.84,1.21-.24-.18-.5-.32-.78-.41-.44-.14-.89-.1-1.43.13-.51.27-1.08.83-1.77,1.79-.65.89-1.27,1.96-1.84,3.18-.62,1.24-1.11,2.57-1.48,3.97-.37,1.44-.47,2.76-.29,3.96.1.56.36,1.12.77,1.66.4.54.92.99,1.54,1.34.49.28,1.02.48,1.56.59.54.11,1.17.09,1.79-.05.76-.18,1.64-.74,2.8-1.76.34-.32.69-.67,1.04-1.05.33-.35.67-.73,1.01-1.13.71-.85,1.17-1.44,1.81-2.35.14-.2.27-.41.4-.61,2.11.23,4.06-.02,5.76-.75-.25.83-.49,1.64-.7,2.39-.34,1.18-.54,2.01-.64,2.56-.08.6.09,1.16.51,1.66.36.42.77.78,1.22,1.06,1.1.7,1.75.65,2.05-.06.02-.08.13-.34.62-1.1.39-.61.87-1.32,1.43-2.11.55-.79,1.18-1.67,1.87-2.62.67-.92,1.38-1.83,2.12-2.73.6-.75,1.19-1.46,1.77-2.1.56-.64,1.09-1.2,1.57-1.67.45-.44.84-.76,1.17-.94.05-.03.1-.05.13-.07-.02.11-.07.28-.19.54-.29.63-.66,1.46-1.09,2.46-.28.7-.54,1.46-.77,2.25-.24.84-.37,1.76-.38,2.71-.03.75.14,1.51.5,2.28.35.74.82,1.39,1.39,1.91.63.57,1.34.95,2.13,1.13.87.2,1.67.08,2.52-.39.69-.39,1.42-.96,2.15-1.68.1.71.38,1.35.82,1.9.43.54.97,1.01,1.58,1.39.63.39,1.29.63,1.98.72.75.11,1.41-.06,1.93-.46.65-.49,1.28-1.08,1.85-1.75.55-.64,1.08-1.29,1.59-1.95.66-.94,1.22-1.83,1.67-2.66.01.1.02.2.04.31.07.48.21.95.4,1.39.22.53.53,1.04.93,1.52.42.51.94.91,1.55,1.19,1.07.55,2.44.52,3.71-.09.75-.38,1.51-.99,2.26-1.81.24-.26.48-.53.71-.81.41,1.04,1,1.92,1.76,2.64,1.31,1.21,2.84,1.83,4.56,1.83.13,0,.27,0,.42-.01,1.51-.1,2.99-.66,4.41-1.65,1.37-.96,2.61-2.11,3.68-3.41,1.08-1.26,4.81-7.12,5.55-8.5l.91-1.58c.31.01.69.07.97.12l.13.02c.3.06.56.13.82.18,0,.32-.27.94-.5,1.45-.39.85-.92,2.08-1.25,2.91-.88,2.21-2.82,8.97-.34,10.94.57.45,1.14.7,1.6.7.4,0,.64-.18.76-.32.14-.16.28-.45.2-.94-.59-3.38.4-6.65,1.45-9.4.16-.42.34-.83.51-1.22.18-.42.35-.82.49-1.2.09-.24.22-.58.35-.92.33-.86.55-1.44.62-1.69.13-.51.05-1-.24-1.5-.12-.2-.28-.38-.47-.56"/>
    <path class="cls-2" d="M158.58,32.72c-.16.78-.51,1.81-1.05,3.04-.44.98-.99,1.95-1.64,2.9-.64.94-1.3,1.77-1.99,2.5-.59.67-1.13,1.18-1.61,1.52-.25.18-.4.25-.47.27-.04-.06-.09-.21-.08-.54,0-.5.09-1.1.23-1.77.14-.56.33-1.18.56-1.85.22-.65.49-1.32.8-2,.16-.39.39-.86.68-1.38.29-.54.59-1.07.89-1.59.29-.52.56-.97.79-1.35.26-.42.35-.51.38-.53.19-.16.31-.36.36-.59l1.89-.81c.33.77.42,1.5.28,2.17M194.55,33.51c-.15-.11-.33-.17-.54-.17h0c-.39.02-.67.32-.98.67-3.75,4.4-10.58,7.6-16.25,7.6-2.99,0-5.28-.92-6.48-2.6l.27-.34c1.49-1.87,2.57-3.15,3.49-4.17,2.23-2.53,4.46-4.49,5.21-4.93.64-.38.62-.91.58-1.12-.08-.47-.5-.92-1.17-1.26-.85-.44-1.83-.49-2.28-.22-1.11.53-3.82,3.53-5.1,5.04l-2.57,3.02c-.17-.92-.31-2.01-.32-2.8,0-1.28.18-2.88.36-3.76.07-.41-.05-.83-.32-1.2-.1-.13-.22-.25-.34-.35-.17-.16-.36-.3-.57-.43-.47-.3-1.02-.42-1.4-.49-1.85-.34-3.52-.28-5.38.19-1.08.27-2.08.64-2.86.94-1.08,0-1.94.15-2.55.44-.72.37-1.27.95-1.56,1.62-.15.23-.27.47-.34.73-.08.04-.17.1-.27.17l-.1.08c-.15.16-.37.41-.66.73-.3.34-.61.74-.93,1.19-.31.44-.63.96-.97,1.59-.32.6-.61,1.23-.85,1.88-.34.89-.6,1.68-.78,2.34-.18.66-.29,1.26-.35,1.78-.05.53-.07.98-.06,1.37.02.37.03.72.06,1.01,0,.52.2,1.07.58,1.63.36.54.87,1,1.48,1.35.46.29.97.48,1.51.56.53.08,1.1.03,1.75-.18.58-.24,1.19-.63,1.83-1.16.6-.5,1.22-1.11,1.84-1.8.5-.57,1.01-1.2,1.51-1.87.5-.67.95-1.38,1.33-2.09.78-1.39,1.3-2.7,1.55-3.91.25-1.22.3-2.3.17-3.24-.14-.75-.44-1.45-.9-2.09.01,0,.02,0,.04-.01.96-.35,2.38-.54,3.71-.49-.14,1.3-.1,2.87.1,4.49.19,1.44.39,2.73,1.09,4.85-1.22,1.56-2.28,3.12-2.98,4.17-.84,1.29-1.26,1.98-1.58,2.51l-.14.23c-.63.89-.3,2.07.35,2.79.38.39.85.61,1.28.61.47,0,.85-.25,1.06-.7.18-.43.64-1.1,1.43-2.25l.58-.86c.6-.9,1.16-1.7,2.12-2.96,1.91,2.01,4.71,3.06,8.12,3.06h0c6.27,0,14.13-3.67,17.9-8.36.55-.68.82-1.49.69-2.06-.07-.35-.21-.59-.43-.75"/>
  </g>
  <polygon class="cls-2" points="202.63 24.69 201.07 17.76 199.51 24.69 192.25 26.18 199.51 27.67 201.07 34.6 202.63 27.67 209.89 26.18 209.89 26.18 202.63 24.69"/>
</svg>